<?xml version="1.0" encoding="UTF-8"?>
<svg version="1.1" xmlns="http://www.w3.org/2000/svg" width="1600" height="1200">
<path d="M0 0 C528 0 1056 0 1600 0 C1600 396 1600 792 1600 1200 C1072 1200 544 1200 0 1200 C0 804 0 408 0 0 Z " fill="#FEFEFE" transform="translate(0,0)"/>
<path d="M0 0 C0 0.66 0 1.32 0 2 C0.72058594 2.1134375 1.44117188 2.226875 2.18359375 2.34375 C26.39554109 7.9853688 47.22321305 36.08528697 64.14361572 53.07495117 C66.95128433 55.89299079 69.76191296 58.70807507 72.57226562 61.5234375 C78.05101602 67.01279862 83.52656721 72.50533612 89 78 C92.89144801 76.41890965 95.49237316 73.76414069 98.37939453 70.81591797 C98.90345886 70.28893311 99.42752319 69.76194824 99.96746826 69.21899414 C101.10133642 68.07753131 102.23288862 66.93376424 103.36236954 65.78796005 C105.14798749 63.97679541 106.93979718 62.17197009 108.73336792 60.36868286 C112.5362011 56.54301133 116.33113442 52.70956201 120.125 48.875 C124.52779885 44.42506791 128.93374037 39.97834702 133.34817123 35.53995132 C135.11717725 33.75793771 136.88007684 31.97002788 138.64285278 30.18185425 C139.72140512 29.0960408 140.80023702 28.01050495 141.87939453 26.92529297 C142.37085968 26.42349518 142.86232483 25.92169739 143.36868286 25.4046936 C144.54177619 24.23123381 145.76649301 23.10978212 147 22 C147.66 22 148.32 22 149 22 C149.33 21.01 149.66 20.02 150 19 C161.45166634 8.94627955 175.04948548 2.76574296 189 -3 C189.78890625 -3.33128906 190.5778125 -3.66257812 191.390625 -4.00390625 C211.56265688 -11.58827257 238.51800663 -12.12080689 259 -6 C260.2072876 -5.64542725 260.2072876 -5.64542725 261.43896484 -5.28369141 C293.78019302 4.36360043 320.63610469 24.28614799 337.14746094 54.06982422 C346.49087704 71.84398554 351.42020083 90.63316538 351.25 110.75 C351.24311157 112.44527832 351.24311157 112.44527832 351.23608398 114.17480469 C351.14177072 122.9215795 350.45511738 131.37550866 349 140 C348.71962891 141.69382812 348.71962891 141.69382812 348.43359375 143.421875 C348.21896484 144.69804687 348.21896484 144.69804687 348 146 C348.71285156 146.44730469 349.42570312 146.89460937 350.16015625 147.35546875 C361.59183673 154.57142857 361.59183673 154.57142857 366 158 C366 158.66 366 159.32 366 160 C366.55300781 160.22945312 367.10601563 160.45890625 367.67578125 160.6953125 C380.27865718 167.76986806 389.87847427 183.44679124 396 196 C396.57621094 197.14597656 397.15242188 198.29195312 397.74609375 199.47265625 C403.07672982 210.53415646 405.6274867 222.0031166 408 234 C408.17885742 234.80679199 408.35771484 235.61358398 408.54199219 236.44482422 C411.59729376 253.49001944 408.99425121 271.62111107 404 288 C403.77538086 288.73782715 403.55076172 289.4756543 403.31933594 290.23583984 C398.68033528 304.89224586 391.20764725 318.49319765 381 330 C380.16726563 330.96421875 379.33453125 331.9284375 378.4765625 332.921875 C369.60625949 343.02760972 359.88216988 351.53315533 348 358 C348.49643481 360.98755365 348.99512331 363.97308919 349.53515625 366.953125 C354.91616585 400.59439985 348.80722825 432.83321653 329.96484375 461.2890625 C309.42500607 489.62832165 280.88483532 506.16832923 246.85546875 512.59375 C241.19402046 513.19029572 235.56393713 513.18436733 229.875 513.1875 C228.72773437 513.19974609 227.58046875 513.21199219 226.3984375 513.22460938 C215.60622765 513.24283946 205.10287155 511.98479792 194.75 508.875 C194.04601074 508.66472168 193.34202148 508.45444336 192.61669922 508.23779297 C168.08016846 500.541231 149.69282123 485.05628139 131.91796875 467.11328125 C130.72629872 465.91786754 129.53417634 464.72290462 128.34162903 463.52836609 C125.2482644 460.42747144 122.16096044 457.32061432 119.07501221 454.21234131 C115.90726413 451.02390172 112.73363782 447.84132404 109.56054688 444.65820312 C103.36803046 438.44442516 97.1819239 432.22431622 91 426 C87.13937611 427.57337622 84.56396283 430.1855769 81.70336914 433.1171875 C81.18722046 433.63786301 80.67107178 434.15853851 80.13928223 434.69499207 C79.0202043 435.82501336 77.90341107 436.9573008 76.78865242 438.09158325 C75.01302939 439.89750442 73.23069827 441.69655272 71.44639587 443.49389648 C66.37448263 448.60541369 61.31509435 453.72925917 56.25952148 458.85693359 C53.16213737 461.99754059 50.05707059 465.13039586 46.94766045 468.25909424 C45.77475789 469.44243089 44.60476682 470.62866195 43.43800545 471.8180542 C33.70147687 481.74287232 23.45274317 491.09930988 11.125 497.75 C10.45412354 498.11577148 9.78324707 498.48154297 9.09204102 498.85839844 C-20.12293341 514.45160389 -54.37227197 517.95565416 -86.1484375 508.35058594 C-117.67039115 498.28758308 -143.2998048 475.87814649 -158.72265625 446.74609375 C-171.92132296 419.23480637 -175.73821959 387.49149111 -167 358 C-167.56074219 357.72671875 -168.12148438 357.4534375 -168.69921875 357.171875 C-179.76571725 351.53528833 -188.25070274 343.67891306 -197 335 C-198.051875 333.96746094 -198.051875 333.96746094 -199.125 332.9140625 C-222.13628258 308.46457476 -229.93950362 275.55418167 -229.12744141 243.02685547 C-227.78908812 211.23968289 -212.07276919 183.04082729 -189.54296875 161.24609375 C-183.97012271 156.3238411 -178.01897684 151.84256802 -171.671875 147.96875 C-170.79015625 147.3190625 -169.9084375 146.669375 -169 146 C-168.37946027 141.50108698 -168.97188994 138.02440433 -170.015625 133.65625 C-171.40018932 126.83752154 -171.29147319 120.05793464 -171.25 113.125 C-171.26160156 111.19720703 -171.26160156 111.19720703 -171.2734375 109.23046875 C-171.20879021 77.3916801 -157.73164943 48.30233861 -135.8125 25.5 C-126.2662571 16.2316443 -115.6768154 9.24607707 -104 3 C-103.29617188 2.60167969 -102.59234375 2.20335937 -101.8671875 1.79296875 C-70.24819612 -15.38531444 -32.6403386 -10.64331124 0 0 Z " fill="#FA864D" transform="translate(710,348)"/>
<path d="M0 0 C2.44133606 1.28046761 4.34349 2.85028082 6.40317631 4.68264389 C7.17919193 5.35811264 7.95520756 6.03358139 8.75473881 6.72951889 C10.89108422 9.05557837 11.67152571 11.01465934 12.77817631 13.93264389 C14.42578011 14.64512121 16.0958116 15.30664772 17.77817631 15.93264389 C20.59067631 18.43264389 20.59067631 18.43264389 22.77817631 20.93264389 C22.77817631 21.59264389 22.77817631 22.25264389 22.77817631 22.93264389 C23.39692631 23.15951889 24.01567631 23.38639389 24.65317631 23.62014389 C26.77817631 24.93264389 26.77817631 24.93264389 27.71567631 27.43264389 C28.52687323 30.13940351 28.52687323 30.13940351 31.09067631 30.93264389 C31.97755131 31.26264389 32.86442631 31.59264389 33.77817631 31.93264389 C36.59067631 34.43264389 36.59067631 34.43264389 38.77817631 36.93264389 C38.77817631 37.59264389 38.77817631 38.25264389 38.77817631 38.93264389 C39.76817631 39.26264389 40.75817631 39.59264389 41.77817631 39.93264389 C41.77817631 40.59264389 41.77817631 41.25264389 41.77817631 41.93264389 C42.43817631 41.93264389 43.09817631 41.93264389 43.77817631 41.93264389 C42.13923356 46.10024109 39.09498358 48.89741301 35.97957706 51.99193954 C35.0799903 52.89726463 35.0799903 52.89726463 34.16223007 53.8208791 C32.14890415 55.84453372 30.12848963 57.86095749 28.10801029 59.87746811 C26.66379981 61.32602529 25.22000806 62.77500004 23.77660465 64.22436142 C19.85128444 68.16309157 15.91956135 72.09537085 11.98626685 76.02613592 C8.70192553 79.30940827 5.42056411 82.59565078 2.13915497 85.88185322 C-5.60617621 93.63828783 -13.35683432 101.38937128 -21.11073971 109.13723373 C-29.10256237 117.12302347 -37.08518196 125.11792808 -45.06332165 133.11738575 C-51.91662297 139.98832347 -58.77573975 146.85341773 -65.63949054 153.7139169 C-69.73715937 157.80977501 -73.83258515 161.90781333 -77.92238712 166.01152802 C-81.77258579 169.8743324 -85.63001771 173.72976664 -89.49302769 177.57975769 C-90.90607912 178.99044928 -92.31660181 180.40367933 -93.72432995 181.81968307 C-108.74436766 196.92159975 -108.74436766 196.92159975 -115.22182369 199.93264389 C-116.21182369 199.93264389 -117.20182369 199.93264389 -118.22182369 199.93264389 C-118.22182369 200.59264389 -118.22182369 201.25264389 -118.22182369 201.93264389 C-120.3433523 202.73356679 -122.46927411 203.52285481 -124.59682369 204.30764389 C-125.78018307 204.74850327 -126.96354244 205.18936264 -128.18276119 205.64358139 C-146.61882829 211.86997984 -166.86560755 210.61044267 -184.28432369 202.30764389 C-184.90935787 202.01373764 -185.53439205 201.71983139 -186.17836666 201.41701889 C-196.52954448 196.15724147 -204.91507915 187.53654228 -213.00771236 179.373806 C-214.3707449 178.01121155 -214.3707449 178.01121155 -215.76131344 176.62108994 C-218.21755827 174.16541143 -220.66765183 171.70368232 -223.1165626 169.24069285 C-225.69002495 166.65460103 -228.26927465 164.07429344 -230.84787655 161.49332809 C-235.71416033 156.62086503 -240.57532992 151.74333348 -245.43461448 146.86389118 C-250.97368366 141.30235144 -256.51853444 135.74659094 -262.06384218 130.19127262 C-273.45621317 118.77808024 -284.84141908 107.35776858 -296.22182369 95.93264389 C-294.627212 92.56866535 -292.88343588 90.3509333 -290.23110104 87.71487045 C-289.41040127 86.89432175 -288.5897015 86.07377304 -287.74413204 85.22835922 C-286.85762966 84.35217941 -285.97112728 83.4759996 -285.05776119 82.57326889 C-284.15055325 81.66889084 -283.2433453 80.76451279 -282.3086462 79.83272934 C-279.9029795 77.43467931 -277.49136633 75.04269771 -275.07845211 72.65194321 C-272.61480025 70.20879218 -270.15683792 67.75993183 -267.69838619 65.31155014 C-262.87808797 60.51330601 -258.05212526 55.72081657 -253.22182369 50.93264389 C-249.42194026 52.69680391 -247.12543153 54.88644817 -244.22182369 57.93264389 C-243.24492135 58.92576175 -242.265677 59.91658028 -241.28432369 60.90530014 C-240.78158932 61.41254623 -240.27885494 61.91979233 -239.76088619 62.44240952 C-239.25299557 62.95481186 -238.74510494 63.4672142 -238.22182369 63.99514389 C-237.45998775 64.76954819 -237.45998775 64.76954819 -236.68276119 65.55959702 C-233.67701376 68.58461206 -230.5670387 71.27854101 -227.22182369 73.93264389 C-225.88849036 75.59931056 -224.55515703 77.26597722 -223.22182369 78.93264389 C-221.57179541 80.28651325 -219.90438499 81.61942531 -218.22182369 82.93264389 C-215.40178048 85.6080695 -212.82643216 88.38409019 -210.34682369 91.37014389 C-208.30853833 93.78897869 -206.2255733 95.86034556 -203.78432369 97.87014389 C-201.28167695 99.93186873 -199.15817618 102.07180396 -197.06947994 104.54983139 C-192.96555495 109.30068587 -188.55809402 113.70696354 -184.09682369 118.12014389 C-183.31178463 118.90067123 -182.52674557 119.68119858 -181.71791744 120.48537827 C-178.65903779 123.52620382 -175.59633271 126.56301977 -172.52651119 129.59280014 C-170.77754698 131.36844347 -169.09535457 133.16379992 -167.42494869 135.01076889 C-161.45125367 141.96352122 -161.45125367 141.96352122 -153.28432369 145.37014389 C-148.29123025 145.51445295 -144.94224478 142.59379973 -141.40009117 139.34304047 C-140.34709911 138.29193282 -139.29961067 137.23529344 -138.25659847 136.17428207 C-137.67528418 135.5911488 -137.09396988 135.00801552 -136.49504 134.40721154 C-134.55274505 132.45651807 -132.61770948 130.49878013 -130.68251705 128.54104233 C-129.28974085 127.13951486 -127.89648428 125.73846462 -126.50278378 124.33785629 C-123.50501362 121.32360729 -120.5102357 118.30642727 -117.51761341 115.28706741 C-112.78876606 110.51687225 -108.05070407 105.75590345 -103.31082821 100.99666977 C-89.83487253 87.4631156 -76.36902514 73.91955857 -62.91786861 60.36135483 C-55.48694891 52.87145752 -48.04718402 45.39046483 -40.59750563 37.91922402 C-35.87929665 33.18633667 -31.17240437 28.44255668 -26.47340477 23.69060087 C-23.55412611 20.7436767 -20.62451749 17.80719823 -17.69179249 14.87366104 C-16.32966832 13.50695006 -14.9718705 12.13591212 -13.61866283 10.76037216 C-11.77706634 8.88961147 -9.92087189 7.03469498 -8.06006527 5.18307114 C-7.52261258 4.62969 -6.98515988 4.07630886 -6.43142074 3.50615859 C-2.77726462 -0.08419468 -2.77726462 -0.08419468 0 0 Z " fill="#FEFEFD" transform="translate(926.2218236923218,496.06735610961914)"/>
<path d="M0 0 C29.15151515 0 29.15151515 0 36.5 6.0625 C38.82078032 10.60736146 38.77915672 15.00290836 38 20 C36 23.1875 36 23.1875 34 25 C34.99 25.7425 35.98 26.485 37 27.25 C40.09109084 30.32644112 40.50692227 32.68479586 40.625 37 C40.34291348 42.05875167 39.6938282 45.3061718 36 49 C29.14172583 53.13861373 21.85187629 52.33419177 14.0625 52.1875 C9.421875 52.125625 4.78125 52.06375 0 52 C0 34.84 0 17.68 0 0 Z " fill="#1F2123" transform="translate(1158,1032)"/>
<path d="M0 0 C1.9140625 1.1015625 1.9140625 1.1015625 4.7265625 3.1015625 C5.0565625 2.1115625 5.3865625 1.1215625 5.7265625 0.1015625 C8.3665625 0.1015625 11.0065625 0.1015625 13.7265625 0.1015625 C13.7265625 13.3015625 13.7265625 26.5015625 13.7265625 40.1015625 C11.0865625 40.1015625 8.4465625 40.1015625 5.7265625 40.1015625 C5.3965625 39.1115625 5.0665625 38.1215625 4.7265625 37.1015625 C4.1490625 37.5759375 3.5715625 38.0503125 2.9765625 38.5390625 C-1.77590927 41.83939012 -7.67639511 41.84222375 -13.2734375 41.1015625 C-19.74857973 38.49803911 -24.11524086 33.80132818 -27.5859375 27.8515625 C-29.25368285 21.1805811 -29.04827317 14.96061525 -25.61328125 8.921875 C-19.52802635 0.65444415 -10.10387177 -3.99293902 0 0 Z " fill="#232526" transform="translate(1253.2734375,1043.8984375)"/>
<path d="M0 0 C1.423125 0.7425 1.423125 0.7425 2.875 1.5 C3.205 0.84 3.535 0.18 3.875 -0.5 C6.515 -0.5 9.155 -0.5 11.875 -0.5 C11.875 12.7 11.875 25.9 11.875 39.5 C9.565 39.5 7.255 39.5 4.875 39.5 C4.545 38.51 4.215 37.52 3.875 36.5 C2.946875 37.16 2.01875 37.82 1.0625 38.5 C-4.4416958 41.61978709 -10.37214716 41.47367831 -16.3984375 39.91015625 C-22.21167873 37.49354064 -25.3271667 32.99885576 -28.125 27.5 C-29.87946345 21.97668913 -30.16970842 16.25531878 -28.1015625 10.80078125 C-22.23579493 -0.03954611 -11.76702327 -4.93455814 0 0 Z " fill="#202224" transform="translate(1391.125,1044.5)"/>
<path d="M0 0 C2.64 0 5.28 0 8 0 C8 10.56 8 21.12 8 32 C13.55206101 29.77917559 14.73342384 27.67209035 17.625 22.875 C21.84135011 16.34525426 21.84135011 16.34525426 26.09375 15.078125 C28.85554299 15.12083314 31.31719044 15.3573498 34 16 C30.36711328 21.62897833 26.58091165 26.84647439 22.125 31.859375 C20.71989567 33.97317011 20.71989567 33.97317011 21.5390625 36.42578125 C23.22339643 39.39363168 25.15886253 41.8421895 27.375 44.4375 C30.51380667 48.17778492 33.42389717 51.85583457 36 56 C32.13391683 56.71540604 28.84575551 56.90575709 25 56 C21.32937938 52.77661696 18.70944031 49.0415818 16 45 C15.4225 44.26265625 14.845 43.5253125 14.25 42.765625 C13 41 13 41 13 39 C11.35 39 9.7 39 8 39 C8 44.61 8 50.22 8 56 C5.36 56 2.72 56 0 56 C0 37.52 0 19.04 0 0 Z " fill="#212325" transform="translate(1444,1028)"/>
<path d="M0 0 C4.54828001 2.3999435 6.96097771 5.18141791 8.52514648 10.03027344 C9.09694689 12.98377471 9.07226748 15.788655 9.05859375 18.796875 C9.05537109 20.04726562 9.05214844 21.29765625 9.04882812 22.5859375 C9.03625977 24.53886719 9.03625977 24.53886719 9.0234375 26.53125 C9.01892578 27.84867188 9.01441406 29.16609375 9.00976562 30.5234375 C8.99798066 33.77608741 8.98152761 37.02864584 8.9609375 40.28125 C5.9909375 40.28125 3.0209375 40.28125 -0.0390625 40.28125 C-0.05364502 39.41846436 -0.06822754 38.55567871 -0.08325195 37.66674805 C-0.14434004 34.46275353 -0.21849799 31.25940375 -0.30151367 28.0559082 C-0.33474799 26.66995623 -0.36278476 25.28386939 -0.38549805 23.89770508 C-0.41906867 21.90418157 -0.4729425 19.91103259 -0.52734375 17.91796875 C-0.55352783 16.71873779 -0.57971191 15.51950684 -0.60668945 14.28393555 C-0.80762102 11.32183675 -0.80762102 11.32183675 -2.32885742 9.39770508 C-4.7833488 7.79536545 -7.16480567 7.75370379 -10.0390625 7.859375 C-13.44839627 8.57853134 -14.97331978 10.60793589 -17.0390625 13.28125 C-18.96824875 16.47585308 -19.32940591 18.99155245 -19.453125 22.703125 C-19.51113281 24.24033203 -19.51113281 24.24033203 -19.5703125 25.80859375 C-19.61671875 27.40380859 -19.61671875 27.40380859 -19.6640625 29.03125 C-19.72207031 30.64966797 -19.72207031 30.64966797 -19.78125 32.30078125 C-19.87540881 34.96076775 -19.96103637 37.6207494 -20.0390625 40.28125 C-22.6790625 40.28125 -25.3190625 40.28125 -28.0390625 40.28125 C-28.0390625 27.08125 -28.0390625 13.88125 -28.0390625 0.28125 C-25.3990625 0.28125 -22.7590625 0.28125 -20.0390625 0.28125 C-19.7090625 1.60125 -19.3790625 2.92125 -19.0390625 4.28125 C-18.2759375 3.641875 -17.5128125 3.0025 -16.7265625 2.34375 C-11.87854505 -1.37682153 -5.78587184 -2.0394644 0 0 Z " fill="#2C2D2F" transform="translate(1315.0390625,1043.71875)"/>
<path d="M0 0 C3.36542733 1.95194785 5.13816195 3.47461208 7.125 6.8125 C7.375 9.625 7.375 9.625 7.125 11.8125 C4.485 11.8125 1.845 11.8125 -0.875 11.8125 C-1.205 10.4925 -1.535 9.1725 -1.875 7.8125 C-3.68742052 7.78562721 -5.49995233 7.76616285 -7.3125 7.75 C-8.82650391 7.73259766 -8.82650391 7.73259766 -10.37109375 7.71484375 C-12.81521067 7.52637324 -12.81521067 7.52637324 -13.875 8.8125 C-13.91563832 10.47867115 -13.917721 12.14638095 -13.875 13.8125 C-12.85019531 14.06644531 -11.82539062 14.32039063 -10.76953125 14.58203125 C-9.40874653 14.92926597 -8.04807535 15.27694584 -6.6875 15.625 C-6.01396484 15.79064453 -5.34042969 15.95628906 -4.64648438 16.12695312 C0.94741011 17.5731795 4.86996627 18.9299494 8.125 23.8125 C8.79883955 27.53635013 8.88833676 31.19722488 7.25 34.6640625 C4.17886844 38.76563952 1.04732882 40.00556085 -3.875 40.8125 C-11.36378076 41.46628245 -16.1546271 40.65173195 -22.25 36 C-24.3672606 33.14984149 -24.19017357 31.27940927 -23.875 27.8125 C-17.91796875 27.421875 -17.91796875 27.421875 -15.875 27.8125 C-15.4109375 28.4725 -14.946875 29.1325 -14.46875 29.8125 C-13.0135495 32.10694365 -13.0135495 32.10694365 -10.17578125 32.203125 C-9.18964844 32.15671875 -8.20351562 32.1103125 -7.1875 32.0625 C-6.19363281 32.02640625 -5.19976563 31.9903125 -4.17578125 31.953125 C-3.41652344 31.90671875 -2.65726563 31.8603125 -1.875 31.8125 C-1.545 30.1625 -1.215 28.5125 -0.875 26.8125 C-2.20690519 26.35003292 -3.5406307 25.89280845 -4.875 25.4375 C-5.69613281 25.15648437 -6.51726562 24.87546875 -7.36328125 24.5859375 C-9.60702787 23.89501708 -11.75522622 23.46415308 -14.0625 23.0625 C-18.12463159 22.07749414 -20.3049775 20.03415531 -22.8046875 16.7421875 C-24.57193546 13.55598133 -24.51849813 11.3517397 -23.875 7.8125 C-19.15304137 -1.63141726 -9.49428323 -3.57311735 0 0 Z " fill="#222426" transform="translate(1431.875,1044.1875)"/>
<path d="M0 0 C14.85 0 29.7 0 45 0 C45 2.64 45 5.28 45 8 C39.06 8 33.12 8 27 8 C27 22.52 27 37.04 27 52 C24.36 52 21.72 52 19 52 C19 37.48 19 22.96 19 8 C12.73 8 6.46 8 0 8 C0 5.36 0 2.72 0 0 Z " fill="#1B1D1F" transform="translate(1324,1032)"/>
<path d="M0 0 C-3.23497687 1.02067788 -4.20755953 0.94860016 -7.72265625 0.078125 C-14.15195118 -1.48415816 -20.65597692 -1.29874783 -27.22875977 -1.26074219 C-29.4294806 -1.250039 -31.62938233 -1.26067557 -33.83007812 -1.2734375 C-41.41256276 -1.28071384 -48.62645441 -0.94463172 -56 1 C-56.69794678 1.16725586 -57.39589355 1.33451172 -58.11499023 1.50683594 C-60.50430257 2.13193773 -62.71113163 3.07355328 -65 4 C-67.68729799 4.91612431 -70.36487915 5.82410222 -73.1015625 6.58203125 C-78.2790542 8.10325304 -82.0082701 10.16404644 -86.17578125 13.59765625 C-88.04980077 15.03828368 -89.8614035 16.00309138 -92 17 C-95.82593135 18.78543463 -98.8914883 21.15215492 -102.1953125 23.7578125 C-104 25 -104 25 -106 25 C-106.0825 25.61875 -106.165 26.2375 -106.25 26.875 C-107.24346683 29.68982269 -108.37963229 29.71884533 -111 31 C-112.63033899 32.35896314 -112.63033899 32.35896314 -114.12890625 33.93359375 C-114.96905273 34.7834082 -114.96905273 34.7834082 -115.82617188 35.65039062 C-116.39916016 36.24013672 -116.97214844 36.82988281 -117.5625 37.4375 C-118.13935547 38.02337891 -118.71621094 38.60925781 -119.31054688 39.21289062 C-120.38587019 40.30557787 -121.45911775 41.40031484 -122.52954102 42.49780273 C-123.54216525 43.53228337 -124.57158926 44.55049613 -125.61425781 45.5546875 C-127.37112702 47.38708104 -128.18739498 49.23658526 -129.1875 51.5625 C-129.53167969 52.34753906 -129.87585938 53.13257813 -130.23046875 53.94140625 C-131.11671644 55.94594412 -131.11671644 55.94594412 -131 58 C-131.99 58.495 -131.99 58.495 -133 59 C-135.77607165 63.44171463 -137.99396624 68.01094489 -140.05859375 72.8203125 C-140.86730704 74.69276899 -141.74017453 76.53728556 -142.625 78.375 C-144.45261233 83.19325068 -145.24480262 87.91500429 -146 93 C-146.1753125 94.0828125 -146.350625 95.165625 -146.53125 96.28125 C-148.49168795 109.77367588 -148.64707795 123.38811228 -149 137 C-148.34 137 -147.68 137 -147 137 C-146.14340865 140.08084955 -145.73058631 143.06792001 -145.4375 146.25 C-145.31181641 147.58804688 -145.31181641 147.58804688 -145.18359375 148.953125 C-145.12300781 149.62859375 -145.06242188 150.3040625 -145 151 C-145.66 151.33 -146.32 151.66 -147 152 C-147.33 152.99 -147.66 153.98 -148 155 C-147.34 155 -146.68 155 -146 155 C-146.33 156.32 -146.66 157.64 -147 159 C-148.32 159 -149.64 159 -151 159 C-151 158.34 -151 157.68 -151 157 C-151.88751953 157.50660156 -151.88751953 157.50660156 -152.79296875 158.0234375 C-156.78450953 160.27641158 -160.66558593 162.4619821 -165 164 C-162.17359352 160.10613834 -159.42274524 157.73041502 -155.3125 155.25 C-151.9744423 153.36556211 -151.9744423 153.36556211 -149 151 C-148.76123039 146.62255717 -148.95624148 142.89687511 -149.99609375 138.64453125 C-151.40459038 131.82936679 -151.29147701 125.05857279 -151.25 118.125 C-151.25773438 116.83980469 -151.26546875 115.55460937 -151.2734375 114.23046875 C-151.20879021 82.3916801 -137.73164943 53.30233861 -115.8125 30.5 C-106.2662571 21.2316443 -95.6768154 14.24607707 -84 8 C-83.29617188 7.60167969 -82.59234375 7.20335937 -81.8671875 6.79296875 C-62.47632559 -3.74189346 -19.57332465 -13.0488831 0 0 Z " fill="#EFB75F" transform="translate(690,343)"/>
<path d="M0 0 C3.75212276 2.01502889 5.63644095 3.45466142 8 7 C8.65868019 12.37666855 8.93047242 17.3384421 6.25 22.125 C2.03988052 25.6334329 -1.33520667 26.50260266 -6.74609375 26.38671875 C-10.65432914 25.71615497 -12.31880718 23.87737766 -15 21 C-17.86172613 16.43463758 -17.14608857 12.08731399 -16 7 C-12.15486146 0.63563276 -7.33765395 -1.17120246 0 0 Z " fill="#F8F8F9" transform="translate(1387,1051)"/>
<path d="M0 0 C3.45211024 2.30140683 4.9826251 4.1448704 6.8125 7.875 C7.67778735 12.29856087 7.17489949 15.16362322 5.125 19.1875 C1.55020791 23.3419881 -0.62526011 24.70141779 -6.125 25.3125 C-10.38484994 25.14339443 -12.93413122 23.66360181 -16.1875 20.875 C-18.95414334 16.44648216 -18.71340521 11.93683767 -18.1875 6.875 C-14.91004735 -1.23238288 -7.84467344 -2.76870827 0 0 Z " fill="#F8F9FA" transform="translate(1252.1875,1052.125)"/>
<path d="M0 0 C0 2.97 0 5.94 0 9 C-1.546875 9.0928125 -1.546875 9.0928125 -3.125 9.1875 C-7.92952697 10.19490082 -9.53529968 11.61779254 -13 15 C-14.28605661 17.57211322 -14.21043941 19.56906966 -14.31640625 22.4453125 C-14.35830078 23.52167969 -14.40019531 24.59804687 -14.44335938 25.70703125 C-14.50233398 27.39892578 -14.50233398 27.39892578 -14.5625 29.125 C-14.60568359 30.26066406 -14.64886719 31.39632813 -14.69335938 32.56640625 C-14.7996604 35.37747768 -14.90169405 38.18863945 -15 41 C-17.64 41 -20.28 41 -23 41 C-23 27.8 -23 14.6 -23 1 C-20.36 1 -17.72 1 -15 1 C-14.67 2.32 -14.34 3.64 -14 5 C-13.236875 4.360625 -12.47375 3.72125 -11.6875 3.0625 C-7.70935607 0.00950582 -4.88502293 -0.10855607 0 0 Z " fill="#222426" transform="translate(1226,1043)"/>
<path d="M0 0 C2.64 0 5.28 0 8 0 C8.33 1.32 8.66 2.64 9 4 C10.32 3.34 11.64 2.68 13 2 C14.17578125 3.73046875 14.17578125 3.73046875 15 6 C13.91796875 7.98828125 13.91796875 7.98828125 12.1875 10.3125 C6.86906636 19.1563646 7.9823178 29.98050866 8 40 C5.36 40 2.72 40 0 40 C0 26.8 0 13.6 0 0 Z " fill="#222426" transform="translate(1287,1044)"/>
<path d="M0 0 C1.80293904 4.1780683 0.03458891 7.80167579 -1.4375 11.8125 C-1.70973389 12.56297607 -1.98196777 13.31345215 -2.26245117 14.08666992 C-12.0247726 40.10400959 -31.47845266 63.65420211 -56 77 C-55.50356519 79.98755365 -55.00487669 82.97308919 -54.46484375 85.953125 C-51.26543691 105.95534258 -51.20489681 127.73735966 -58 147 C-58.33 147 -58.66 147 -59 147 C-58.85919445 144.22882696 -58.71256882 141.45817359 -58.5625 138.6875 C-58.52318359 137.90181641 -58.48386719 137.11613281 -58.44335938 136.30664062 C-58.40146484 135.54931641 -58.35957031 134.79199219 -58.31640625 134.01171875 C-58.26141968 132.96697388 -58.26141968 132.96697388 -58.20532227 131.90112305 C-58 130 -58 130 -57 127 C-56.67 127 -56.34 127 -56 127 C-55.9249841 122.09280617 -55.8709959 117.18595729 -55.83520508 112.27832031 C-55.82026076 110.61419855 -55.79989777 108.95011517 -55.77368164 107.28613281 C-55.63521879 98.26161323 -55.65572533 90.05391842 -58.44799805 81.35644531 C-59.04329434 78.81518045 -58.85284878 77.43590294 -58 75 C-56.02 74.505 -56.02 74.505 -54 74 C-54 73.01 -54 72.02 -54 71 C-52.68 71 -51.36 71 -50 71 C-50 69.68 -50 68.36 -50 67 C-47.36 66.67 -44.72 66.34 -42 66 C-42 65.01 -42 64.02 -42 63 C-40.865625 62.4225 -39.73125 61.845 -38.5625 61.25 C-35.65184113 59.74570158 -35.65184113 59.74570158 -34.375 56.875 C-34.25125 56.25625 -34.1275 55.6375 -34 55 C-31.4375 53.75 -31.4375 53.75 -29 53 C-29 52.34 -29 51.68 -29 51 C-28.34 51 -27.68 51 -27 51 C-26.7525 50.443125 -26.505 49.88625 -26.25 49.3125 C-24.77075182 46.57589087 -23.06532561 44.32349131 -21 42 C-20.34 42 -19.68 42 -19 42 C-18.9175 40.9275 -18.835 39.855 -18.75 38.75 C-17.92174644 34.60873219 -17.01961652 33.73652747 -14 31 C-13.64830932 29.67139075 -13.31229724 28.33841672 -13 27 C-12.01 26.34 -11.02 25.68 -10 25 C-10 24.01 -10 23.02 -10 22 C-9.34 22 -8.68 22 -8 22 C-7.34 19.69 -6.68 17.38 -6 15 C-5.34 15 -4.68 15 -4 15 C-3.81824219 14.12988281 -3.81824219 14.12988281 -3.6328125 13.2421875 C-2.66264526 8.71971558 -1.56602217 4.36249034 0 0 Z " fill="#E96F67" transform="translate(1114,629)"/>
<path d="M0 0 C2.64 0 5.28 0 8 0 C8 13.2 8 26.4 8 40 C5.36 40 2.72 40 0 40 C0 26.8 0 13.6 0 0 Z " fill="#1B1D20" transform="translate(1273,1044)"/>
<path d="M0 0 C3.06345144 -0.10822792 6.1230601 -0.18741479 9.1875 -0.25 C10.05181641 -0.28351563 10.91613281 -0.31703125 11.80664062 -0.3515625 C16.0161219 -0.41607562 18.39626091 -0.34769918 22.11328125 1.79296875 C24 4 24 4 24 7.5625 C23.01905213 10.93450832 22.6962876 11.96760137 20 14 C17.82348633 14.34057617 17.82348633 14.34057617 15.33203125 14.29296875 C14.43935547 14.28330078 13.54667969 14.27363281 12.62695312 14.26367188 C11.23379883 14.2259668 11.23379883 14.2259668 9.8125 14.1875 C8.87212891 14.17396484 7.93175781 14.16042969 6.96289062 14.14648438 C4.64168265 14.11113603 2.32076912 14.05732915 0 14 C0 9.38 0 4.76 0 0 Z " fill="#F8FAFA" transform="translate(1166,1062)"/>
<path d="M0 0 C2.56314499 -0.08132187 5.12368418 -0.14064175 7.6875 -0.1875 C8.40873047 -0.21263672 9.12996094 -0.23777344 9.87304688 -0.26367188 C14.48087064 -0.32679275 17.31351222 0.20165268 21 3 C21.33 3.33 21.66 3.66 22 4 C21.65244184 10.25604683 21.65244184 10.25604683 19.49609375 12.71484375 C15.78032734 14.62796918 12.36095411 14.3204413 8.25 14.1875 C7.45722656 14.17396484 6.66445312 14.16042969 5.84765625 14.14648438 C3.89814436 14.11125223 1.94898374 14.05744821 0 14 C0 9.38 0 4.76 0 0 Z " fill="#F7F8F8" transform="translate(1166,1040)"/>
<path d="M0 0 C0.66 0 1.32 0 2 0 C-0.94096829 23.82184319 -21.32008141 46.75954742 -39.421875 60.890625 C-49.30219561 68.05870074 -61.16632241 75.6477353 -73 79 C-75.3359375 78.62109375 -75.3359375 78.62109375 -77 78 C-75.5437455 77.32880451 -74.08492133 76.66318193 -72.625 76 C-71.81289063 75.62875 -71.00078125 75.2575 -70.1640625 74.875 C-68 74 -68 74 -66 74 C-65.505 73.01 -65.505 73.01 -65 72 C-63.3523962 71.28752268 -61.68236471 70.62599617 -60 70 C-57.40055133 68.89720359 -55.99003165 67.98972014 -54 65.9375 C-51.84026463 63.84525637 -50.90442436 63.4400643 -48 63 C-47.0925 62.814375 -46.185 62.62875 -45.25 62.4375 C-44.5075 62.293125 -43.765 62.14875 -43 62 C-43 61.34 -43 60.68 -43 60 C-42.34 60 -41.68 60 -41 60 C-40.67 58.68 -40.34 57.36 -40 56 C-39.01 56 -38.02 56 -37 56 C-36.67 55.01 -36.34 54.02 -36 53 C-30.81203008 48.15789474 -30.81203008 48.15789474 -27.75 47.5625 C-27.1725 47.376875 -26.595 47.19125 -26 47 C-24.84164327 44.02496878 -24.84164327 44.02496878 -24 41 C-23.34 40.67 -22.68 40.34 -22 40 C-21.690625 39.175 -21.38125 38.35 -21.0625 37.5 C-20.711875 36.675 -20.36125 35.85 -20 35 C-19.01 34.67 -18.02 34.34 -17 34 C-16.505 33.01 -16.505 33.01 -16 32 C-15.34 32 -14.68 32 -14 32 C-13.67 30.02 -13.34 28.04 -13 26 C-12.34 26 -11.68 26 -11 26 C-11 25.34 -11 24.68 -11 24 C-10.34 24 -9.68 24 -9 24 C-9 21.69 -9 19.38 -9 17 C-7.68 16.34 -6.36 15.68 -5 15 C-5.061875 14.071875 -5.12375 13.14375 -5.1875 12.1875 C-4.97051677 8.49878508 -4.55565639 8.35906744 -2 6 C-0.79950593 2.89992799 -0.79950593 2.89992799 0 0 Z " fill="#ED6368" transform="translate(1053,776)"/>
<path d="M0 0 C8.26706587 0.35329341 8.26706587 0.35329341 11.125 2.875 C11.74375 3.57625 12.3625 4.2775 13 5 C17.69411544 7.39134183 21.82399895 8.27535985 27 9 C27.33 9.66 27.66 10.32 28 11 C31.02934491 11.65772428 31.02934491 11.65772428 34 12 C34 12.66 34 13.32 34 14 C36.97851562 13.95117188 36.97851562 13.95117188 39.95703125 13.90234375 C42 14 42 14 45 15 C47.55093097 15.10853861 50.07374184 15.16401905 52.625 15.16796875 C53.36830566 15.17129715 54.11161133 15.17462555 54.87744141 15.17805481 C56.44758486 15.18311294 58.01773903 15.18546348 59.58789062 15.18530273 C61.99106483 15.18749186 64.39378183 15.20566607 66.796875 15.22460938 C68.3229151 15.22754299 69.84895737 15.229528 71.375 15.23046875 C72.09381348 15.23765427 72.81262695 15.24483978 73.55322266 15.25224304 C77.26080276 15.23523809 78.83033939 15.11310708 82 13 C83.9453125 12.83984375 83.9453125 12.83984375 86.125 12.9375 C90.84204268 13.05368332 95.32093437 12.59416706 100 12 C90.01885793 18.65409472 74.61370242 18.37339567 63.0625 18.375 C61.96292969 18.3764502 60.86335937 18.37790039 59.73046875 18.37939453 C49.21210115 18.23908657 38.84029931 16.90388203 28.75 13.875 C28.05181152 13.66762207 27.35362305 13.46024414 26.63427734 13.24658203 C17.80582435 10.48756739 6.39586142 6.87646125 0 0 Z " fill="#E46A69" transform="translate(876,843)"/>
<path d="M0 0 C0.99 0 1.98 0 3 0 C3 0.66 3 1.32 3 2 C6.465 1.505 6.465 1.505 10 1 C10.33 1.66 10.66 2.32 11 3 C12.96067355 4.07355814 12.96067355 4.07355814 15.375 5 C16.56222656 5.495 16.56222656 5.495 17.7734375 6 C27.76889134 9.09786463 37.60712723 9.34362971 47.97875977 9.31567383 C50.42965074 9.31251013 52.8793351 9.33606273 55.33007812 9.36132812 C63.44191487 9.39256814 70.7767882 9.05237971 78.61254883 6.66357422 C81.86233582 5.7603202 84.65305945 5.77179951 88 6 C69.60443471 16.60731297 40.22027163 14.11743117 20.49609375 9.2890625 C13.47616453 7.37245217 6.70548042 4.80955883 0 2 C0 1.34 0 0.68 0 0 Z " fill="#E9826A" transform="translate(610,849)"/>
<path d="M0 0 C6.91663627 1.09890483 13.42736799 2.56569185 20 5 C20 5.66 20 6.32 20 7 C20.72058594 7.1134375 21.44117188 7.226875 22.18359375 7.34375 C35.01675902 10.3340021 46.5257055 21.33380709 56 30 C55.01 30.33 54.02 30.66 53 31 C52.31164062 30.27683594 52.31164062 30.27683594 51.609375 29.5390625 C50.99578125 28.90742188 50.3821875 28.27578125 49.75 27.625 C49.14671875 26.99851562 48.5434375 26.37203125 47.921875 25.7265625 C44.9129003 23.02337791 41.91948051 21.83988868 38 21 C38 20.01 38 19.02 38 18 C36.35 17.67 34.7 17.34 33 17 C33 16.34 33 15.68 33 15 C32.36191406 14.89042969 31.72382812 14.78085937 31.06640625 14.66796875 C30.24011719 14.50941406 29.41382813 14.35085938 28.5625 14.1875 C27.73878906 14.03667969 26.91507813 13.88585937 26.06640625 13.73046875 C25.38449219 13.48941406 24.70257812 13.24835938 24 13 C23.67 12.01 23.34 11.02 23 10 C20.525 9.505 20.525 9.505 18 9 C18 8.01 18 7.02 18 6 C17.38511719 5.93941406 16.77023437 5.87882812 16.13671875 5.81640625 C14.92435547 5.69072266 14.92435547 5.69072266 13.6875 5.5625 C12.88699219 5.48128906 12.08648438 5.40007812 11.26171875 5.31640625 C9 5 9 5 6 4 C6 3.34 6 2.68 6 2 C4.35 2 2.7 2 1 2 C0.67 1.34 0.34 0.68 0 0 Z " fill="#EFAF58" transform="translate(690,343)"/>
<path d="M0 0 C2.475 0.495 2.475 0.495 5 1 C5 1.99 5 2.98 5 4 C5.556875 4.04125 6.11375 4.0825 6.6875 4.125 C9.61284293 5.23188651 10.88432762 7.0782475 12.76171875 9.5078125 C14.28326681 11.34134991 16.09386081 12.58804505 18 14 C18 14.66 18 15.32 18 16 C18.66 16 19.32 16 20 16 C20.33 16.99 20.66 17.98 21 19 C21.99 19.33 22.98 19.66 24 20 C26.6875 22.4375 26.6875 22.4375 29 25 C29 25.66 29 26.32 29 27 C29.556875 27.061875 30.11375 27.12375 30.6875 27.1875 C33.99068042 28.3480769 35.71894733 30.40213446 38 33 C38 33.66 38 34.32 38 35 C38.61875 35.144375 39.2375 35.28875 39.875 35.4375 C42 36 42 36 44 37 C44 37.66 44 38.32 44 39 C30.44587605 34.10348402 19.30210671 20.47122718 9.375 10.5 C8.46621094 9.59507812 7.55742188 8.69015625 6.62109375 7.7578125 C5.76386719 6.89929688 4.90664063 6.04078125 4.0234375 5.15625 C3.24919434 4.38087891 2.47495117 3.60550781 1.67724609 2.80664062 C0 1 0 1 0 0 Z " fill="#EC786F" transform="translate(832,804)"/>
<path d="M0 0 C0.33 0 0.66 0 1 0 C1.08172102 4.16777219 0.98621003 7.94558101 0 12 C-0.165 12.7425 -0.33 13.485 -0.5 14.25 C-1 16 -1 16 -2 17 C-3.92337004 23.26281328 -4.27428492 29.34190843 -4.1953125 35.84765625 C-4.1924826 36.74495956 -4.18965271 37.64226288 -4.18673706 38.5667572 C-4.17564979 41.39881414 -4.15056747 44.23054061 -4.125 47.0625 C-4.11495537 48.99674019 -4.10583213 50.93098539 -4.09765625 52.86523438 C-4.07574814 57.5769479 -4.04129901 62.28841816 -4 67 C-12.04263221 54.93605169 -7.48526091 29.73683224 -4.93359375 16.18359375 C-3.76501939 10.6300107 -2.07614471 5.27994161 0 0 Z " fill="#EDAB65" transform="translate(488,557)"/>
<path d="M0 0 C0.99 0.33 1.98 0.66 3 1 C-8.72223219 13.54006235 -23.8264461 24.03821553 -40 30 C-40.99 29.67 -41.98 29.34 -43 29 C-41.16666667 28.08333333 -39.33333333 27.16666667 -37.5 26.25 C-36.40816406 25.70214844 -35.31632813 25.15429688 -34.19140625 24.58984375 C-32.30975315 23.65247189 -30.42351453 22.72405198 -28.52734375 21.81640625 C-24.68609682 20.01936436 -24.68609682 20.01936436 -21.41015625 17.38671875 C-20 16 -20 16 -18 16 C-18 15.34 -18 14.68 -18 14 C-16.68 13.67 -15.36 13.34 -14 13 C-14.33 11.68 -14.66 10.36 -15 9 C-14.43410156 8.87882813 -13.86820313 8.75765625 -13.28515625 8.6328125 C-12.18494141 8.38144531 -12.18494141 8.38144531 -11.0625 8.125 C-10.33160156 7.96257813 -9.60070312 7.80015625 -8.84765625 7.6328125 C-6.79299706 7.17038477 -6.79299706 7.17038477 -6 5 C-5.34 5 -4.68 5 -4 5 C-3.67 4.34 -3.34 3.68 -3 3 C-2.01979625 1.9805881 -1.02196992 0.97753644 0 0 Z " fill="#EC7A66" transform="translate(746,823)"/>
<path d="M0 0 C3.17483377 1.49572493 5.02236535 2.89108475 7.25 5.625 C8.03117188 6.57246094 8.03117188 6.57246094 8.828125 7.5390625 C9.40820312 8.26222656 9.40820312 8.26222656 10 9 C6.44774296 7.28564986 3.25978366 5.22257977 0 3 C-0.67095703 3.79664063 -0.67095703 3.79664063 -1.35546875 4.609375 C-4.04399371 7.7507645 -6.53851259 10.64106535 -9.8125 13.1875 C-12.18750533 14.84550233 -12.18750533 14.84550233 -12.9375 17.5625 C-14 20 -14 20 -16.9375 21.4375 C-20.2587783 22.73754146 -20.2587783 22.73754146 -21.4375 26.0625 C-23 29 -23 29 -26.6875 30.375 C-27.780625 30.58125 -28.87375 30.7875 -30 31 C-24.33425951 24.07189276 -17.96966361 17.85795858 -11.625 11.5625 C-10.49586045 10.43838533 -9.36695222 9.31403826 -8.23828125 8.18945312 C-5.49484812 5.45694765 -2.74830015 2.72760991 0 0 Z " fill="#FEF3E9" transform="translate(799,773)"/>
<path d="M0 0 C4.67737169 8.50342002 4.35540774 18.8015808 4.3125 28.25 C4.31121094 29.42989502 4.30992188 30.60979004 4.30859375 31.82543945 C4.21276761 40.54262335 3.36348617 48.60118307 1 57 C0.67 57 0.34 57 0 57 C-0.02686553 55.02090602 -0.04633375 53.04171029 -0.0625 51.0625 C-0.07410156 49.96035156 -0.08570313 48.85820313 -0.09765625 47.72265625 C0 45 0 45 1 44 C1.1003385 41.67101083 1.13081494 39.33896122 1.1328125 37.0078125 C1.13376923 36.30606903 1.13472595 35.60432556 1.13571167 34.88131714 C1.1363935 33.39337067 1.134539 31.90542125 1.13037109 30.41748047 C1.12503874 28.1415332 1.13030765 25.86578471 1.13671875 23.58984375 C1.13605766 22.1458329 1.13477585 20.70182217 1.1328125 19.2578125 C1.13168457 17.9392627 1.13055664 16.62071289 1.12939453 15.26220703 C1.15117989 11.98957365 1.15117989 11.98957365 0 9 C-0.06740865 7.43881572 -0.08514456 5.8749748 -0.0625 4.3125 C-0.05347656 3.50425781 -0.04445313 2.69601562 -0.03515625 1.86328125 C-0.02355469 1.24839844 -0.01195312 0.63351562 0 0 Z " fill="#E87F6F" transform="translate(1115,572)"/>
<path d="M0 0 C3.95462352 2.63641568 3.96714033 4.42590718 5 9 C5.79809455 14.47917074 6.17037455 19.80730789 6.203125 25.33984375 C6.20882507 26.10623672 6.21452515 26.8726297 6.22039795 27.6622467 C6.2297764 29.2714808 6.23635314 30.88073349 6.24023438 32.48999023 C6.24996176 34.92791597 6.28106127 37.36500486 6.3125 39.80273438 C6.36456937 47.69275708 6.23555042 54.65189471 3 62 C1.96457862 58.7998129 2.0945174 56.7897897 2.9140625 53.55078125 C4.2448968 47.41615132 4.38220236 41.44860503 4.375 35.1875 C4.37628906 34.01856201 4.37757812 32.84962402 4.37890625 31.64526367 C4.24887758 20.7797429 2.53033063 10.53927893 0 0 Z " fill="#FEE6DB" transform="translate(1114,566)"/>
<path d="M0 0 C0.66 0.66 1.32 1.32 2 2 C1.34 2.66 0.68 3.32 0 4 C-0.66 3.67 -1.32 3.34 -2 3 C-2 3.66 -2 4.32 -2 5 C-3.32 5.33 -4.64 5.66 -6 6 C-5.86722656 6.97453125 -5.73445313 7.9490625 -5.59765625 8.953125 C-4.32917195 18.88679311 -3.65815989 28.80708442 -3.25 38.8125 C-3.19336182 40.03420898 -3.13672363 41.25591797 -3.07836914 42.51464844 C-3.03703857 43.67125977 -2.99570801 44.82787109 -2.953125 46.01953125 C-2.91348633 47.05182861 -2.87384766 48.08412598 -2.83300781 49.14770508 C-3.00948637 52.16203109 -3.72502262 54.28115133 -5 57 C-5.98344875 53.7374172 -6.09011364 50.84808151 -6.02734375 47.44921875 C-6.01372803 46.36479492 -6.0001123 45.28037109 -5.98608398 44.16308594 C-5.97005127 43.01614258 -5.95401855 41.86919922 -5.9375 40.6875 C-5.86267516 30.90769059 -6.25297387 21.64052373 -8 12 C-8.33408055 10.00012468 -8.66763782 8.00016162 -9 6 C-6.03 4.02 -3.06 2.04 0 0 Z " fill="#FEE1DE" transform="translate(1066,700)"/>
<path d="M0 0 C3 0.25 3 0.25 5 2.25 C5.25 5.25 5.25 5.25 5 8.25 C3 10.25 3 10.25 0 10.5 C-3 10.25 -3 10.25 -5 8.25 C-5.25 5.25 -5.25 5.25 -5 2.25 C-3 0.25 -3 0.25 0 0 Z " fill="#1D201F" transform="translate(1277,1027.75)"/>
<path d="M0 0 C0.33 1.32 0.66 2.64 1 4 C-0.65 3.34 -2.3 2.68 -4 2 C-9.28 7.28 -14.56 12.56 -20 18 C-21 15 -21 15 -19.875 11.9375 C-18 9 -18 9 -15.5 8.0625 C-12.58727759 7.15664829 -12.58727759 7.15664829 -11.375 3.4375 C-10.92125 2.303125 -10.4675 1.16875 -10 0 C-6.30581799 -1.231394 -3.7943739 -0.64432764 0 0 Z " fill="#F59B52" transform="translate(677,546)"/>
<path d="M0 0 C0.99 0.33 1.98 0.66 3 1 C-5.58 9.58 -14.16 18.16 -23 27 C-23.66 26.67 -24.32 26.34 -25 26 C-25 24 -25 24 -23.1875 21.875 C-21 20 -21 20 -18 20 C-17.731875 19.360625 -17.46375 18.72125 -17.1875 18.0625 C-16 16 -16 16 -13 15 C-13 14.01 -13 13.02 -13 12 C-12.01 12 -11.02 12 -10 12 C-9.9175 11.38125 -9.835 10.7625 -9.75 10.125 C-9 8 -9 8 -6.9375 6.75 C-6.298125 6.5025 -5.65875 6.255 -5 6 C-5 5.34 -5 4.68 -5 4 C-4.34 4 -3.68 4 -3 4 C-3 3.34 -3 2.68 -3 2 C-2.01 1.34 -1.02 0.68 0 0 Z " fill="#EC7E6B" transform="translate(773,796)"/>
<path d="M0 0 C0.33 0.99 0.66 1.98 1 3 C0.21625 3.763125 -0.5675 4.52625 -1.375 5.3125 C-4.07257717 7.90891805 -4.07257717 7.90891805 -6 11 C-6.66 11 -7.32 11 -8 11 C-8.226875 11.94875 -8.45375 12.8975 -8.6875 13.875 C-10 17 -10 17 -12.3125 18.125 C-13.199375 18.41375 -14.08625 18.7025 -15 19 C-15.86625 19.721875 -16.7325 20.44375 -17.625 21.1875 C-18.800625 22.0846875 -18.800625 22.0846875 -20 23 C-20.99 22.67 -21.98 22.34 -23 22 C-22.26136719 21.33355469 -21.52273438 20.66710937 -20.76171875 19.98046875 C-13.63228567 13.5145413 -6.74611279 6.86563054 0 0 Z " fill="#F08465" transform="translate(839,670)"/>
<path d="M0 0 C0 0.66 0 1.32 0 2 C-0.99 2 -1.98 2 -3 2 C-3.33 2.99 -3.66 3.98 -4 5 C-7.5 6.5 -7.5 6.5 -11 8 C-11.33 8.99 -11.66 9.98 -12 11 C-12.86625 10.690625 -13.7325 10.38125 -14.625 10.0625 C-15.73875 10.041875 -16.8525 10.02125 -18 10 C-19.70794715 11.67291234 -21.04327136 13.49519514 -22.4765625 15.40625 C-24 17 -24 17 -27.375 17.4375 C-28.674375 17.2209375 -28.674375 17.2209375 -30 17 C-26.45214116 13.16537813 -22.84364955 10.45635535 -18.25 7.9375 C-17.63672852 7.59460938 -17.02345703 7.25171875 -16.39160156 6.8984375 C-3.89965913 0 -3.89965913 0 0 0 Z " fill="#F0A255" transform="translate(896,347)"/>
<path d="M0 0 C-13.16022512 8.77348342 -33.13227045 6.1673921 -48 5 C-48 4.67 -48 4.34 -48 4 C-47.19780029 3.98018066 -46.39560059 3.96036133 -45.5690918 3.93994141 C-41.94155823 3.84480505 -38.31460955 3.7350792 -34.6875 3.625 C-33.42486328 3.5940625 -32.16222656 3.563125 -30.86132812 3.53125 C-29.04858398 3.47324219 -29.04858398 3.47324219 -27.19921875 3.4140625 C-26.08377686 3.3826416 -24.96833496 3.3512207 -23.8190918 3.31884766 C-20.79631214 3.194751 -20.79631214 3.194751 -18 1 C-15.84375 0.83984375 -15.84375 0.83984375 -13.5 0.9375 C-8.84241066 1.11604092 -4.71098185 -0.10468849 0 0 Z " fill="#EC6366" transform="translate(976,855)"/>
<path d="M0 0 C0 3.50481678 -0.49237247 3.92840405 -2.75 6.4375 C-3.30042969 7.05367188 -3.85085938 7.66984375 -4.41796875 8.3046875 C-6.23339689 10.25010927 -8.11856035 12.11856035 -10 14 C-10.78375 15.051875 -11.5675 16.10375 -12.375 17.1875 C-15.33509802 20.3590336 -16.75339919 20.80248368 -21 21 C-21.598125 20.236875 -22.19625 19.47375 -22.8125 18.6875 C-24.46959332 16.6516425 -26.10297674 14.8021721 -28 13 C-27.67 12.34 -27.34 11.68 -27 11 C-24.69 13.31 -22.38 15.62 -20 18 C-16.46866927 16.23433463 -14.78657357 15.02506669 -12.109375 12.3046875 C-11.40039062 11.58925781 -10.69140625 10.87382812 -9.9609375 10.13671875 C-9.23132813 9.39035156 -8.50171875 8.64398438 -7.75 7.875 C-7.00492188 7.12089844 -6.25984375 6.36679687 -5.4921875 5.58984375 C-3.6568658 3.73099228 -1.8263809 1.86762995 0 0 Z " fill="#EEA767" transform="translate(819,408)"/>
<path d="M0 0 C0.33 0.99 0.66 1.98 1 3 C-0.40893147 4.63171123 -1.82745958 6.25513945 -3.25 7.875 C-4.03890625 8.77992188 -4.8278125 9.68484375 -5.640625 10.6171875 C-7.78718195 12.78506786 -9.29137349 13.75878785 -12 15 C-12.639375 15.825 -13.27875 16.65 -13.9375 17.5 C-16.16920126 20.20509244 -17.69608882 20.99047158 -21 22 C-16.61557474 16.74825074 -11.99157907 11.86777527 -7.125 7.0625 C-6.43664062 6.37865234 -5.74828125 5.69480469 -5.0390625 4.99023438 C-3.36166489 3.32448536 -1.68196209 1.6611378 0 0 Z " fill="#ECA96F" transform="translate(845,382)"/>
<path d="M0 0 C4.02077152 -0.05843491 8.04143259 -0.0937424 12.0625 -0.125 C13.7630957 -0.15013672 13.7630957 -0.15013672 15.49804688 -0.17578125 C21.40039384 -0.21019727 26.44067027 -0.04944811 32 2 C32 2.33 32 2.66 32 3 C21.44 2.67 10.88 2.34 0 2 C0 1.34 0 0.68 0 0 Z " fill="#FEF4D3" transform="translate(648,337)"/>
<path d="M0 0 C1.44886775 4.46407901 0.07738263 6.84523475 -2 11 C-2.47824219 11.63550781 -2.95648438 12.27101563 -3.44921875 12.92578125 C-5.59471712 15.79545287 -7.1532225 18.90847024 -8.81640625 22.07421875 C-10 24 -10 24 -12 25 C-9.55089226 15.85666443 -4.74587908 8.1087871 0 0 Z " fill="#F1AE5F" transform="translate(501,532)"/>
<path d="M0 0 C0.66 0.66 1.32 1.32 2 2 C1.3503125 2.928125 1.3503125 2.928125 0.6875 3.875 C-2.92807998 10.57051849 -4.29486188 17.52396345 -4.7890625 25.06640625 C-5 27 -5 27 -6 28 C-6.23363881 29.84891946 -6.41303635 31.70488031 -6.5625 33.5625 C-6.64628906 34.57441406 -6.73007812 35.58632813 -6.81640625 36.62890625 C-6.90728516 37.80259766 -6.90728516 37.80259766 -7 39 C-7.33 39 -7.66 39 -8 39 C-8.3170843 26.77463875 -7.58808966 14.17617933 -2 3 C-1.34 3 -0.68 3 0 3 C0 2.01 0 1.02 0 0 Z " fill="#F0B553" transform="translate(549,413)"/>
<path d="M0 0 C1.25039063 0.00322266 2.50078125 0.00644531 3.7890625 0.00976562 C5.74199219 0.02233398 5.74199219 0.02233398 7.734375 0.03515625 C9.71050781 0.04192383 9.71050781 0.04192383 11.7265625 0.04882812 C14.97921241 0.06061309 18.23177084 0.07706614 21.484375 0.09765625 C21.484375 0.42765625 21.484375 0.75765625 21.484375 1.09765625 C20.62610107 1.11953003 20.62610107 1.11953003 19.75048828 1.1418457 C5.4879436 1.54475049 -8.67009954 2.36725561 -22.515625 6.09765625 C-22.515625 5.10765625 -22.515625 4.11765625 -22.515625 3.09765625 C-19.21584225 2.13521961 -15.92073331 1.75133997 -12.515625 1.37890625 C-10.54243386 1.15211864 -10.54243386 1.15211864 -8.79785156 0.58618164 C-5.82723595 -0.04969789 -3.03770517 -0.01380775 0 0 Z " fill="#FEEBCE" transform="translate(926.515625,337.90234375)"/>
<path d="M0 0 C0 3 0 3 -0.5625 4.75 C-1.18708412 7.9621469 -0.55335809 10.80281993 0 14 C0.66 14 1.32 14 2 14 C3.7143618 15.95927063 5.38405168 17.95880212 7 20 C6.67 20.66 6.34 21.32 6 22 C1.71 17.71 -2.58 13.42 -7 9 C-5.04783565 5.09567131 -3.12613393 2.96160056 0 0 Z " fill="#FEF0DC" transform="translate(637,583)"/>
<path d="M0 0 C0 0.66 0 1.32 0 2 C0.66 2 1.32 2 2 2 C1.67 3.32 1.34 4.64 1 6 C-0.32 6 -1.64 6 -3 6 C-3 5.34 -3 4.68 -3 4 C-3.59167969 4.33773438 -4.18335938 4.67546875 -4.79296875 5.0234375 C-8.78450953 7.27641158 -12.66558593 9.4619821 -17 11 C-13.47336688 5.54974882 -6.71379909 0 0 0 Z " fill="#F0B15D" transform="translate(542,496)"/>
<path d="M0 0 C0 1.98 0 3.96 0 6 C-0.845625 6.165 -1.69125 6.33 -2.5625 6.5 C-7.35873562 8.59290281 -9.76769638 12.00127387 -13 16 C-13.66 16.66 -14.32 17.32 -15 18 C-15.99 17.67 -16.98 17.34 -18 17 C-15.19151503 14.16266225 -12.37756077 11.33081251 -9.5625 8.5 C-8.76005859 7.68917969 -7.95761719 6.87835937 -7.13085938 6.04296875 C-6.36708984 5.27597656 -5.60332031 4.50898437 -4.81640625 3.71875 C-4.10943604 3.00654297 -3.40246582 2.29433594 -2.67407227 1.56054688 C-1 0 -1 0 0 0 Z " fill="#FEEAD6" transform="translate(672,549)"/>
<path d="M0 0 C0.33 0 0.66 0 1 0 C1 8.58 1 17.16 1 26 C0.01 26.33 -0.98 26.66 -2 27 C-1.86188078 22.68721615 -1.71321891 18.37486047 -1.5625 14.0625 C-1.50352539 12.21495117 -1.50352539 12.21495117 -1.44335938 10.33007812 C-1.40146484 9.16025391 -1.35957031 7.99042969 -1.31640625 6.78515625 C-1.27974854 5.70113525 -1.24309082 4.61711426 -1.20532227 3.50024414 C-1 1 -1 1 0 0 Z " fill="#FEF3E2" transform="translate(538,726)"/>
<path d="M0 0 C2.9375 0.8125 2.9375 0.8125 6 2 C6.33 2.99 6.66 3.98 7 5 C7.66 5 8.32 5 9 5 C9 5.66 9 6.32 9 7 C9.804375 7.2475 10.60875 7.495 11.4375 7.75 C14 9 14 9 14.8125 11.125 C14.874375 11.74375 14.93625 12.3625 15 13 C15.66 13 16.32 13 17 13 C17.66 14.65 18.32 16.3 19 18 C14.00547491 13.85560684 9.47168802 9.47874639 5.015625 4.7578125 C3.0689099 2.67136857 3.0689099 2.67136857 0 3 C0 2.01 0 1.02 0 0 Z " fill="#EB826D" transform="translate(798,771)"/>
<path d="M0 0 C0.33 1.32 0.66 2.64 1 4 C0.20335937 4.67095703 0.20335937 4.67095703 -0.609375 5.35546875 C-4.49113521 8.67763214 -7.92116313 11.89488418 -11 16 C-12.5 17.875 -12.5 17.875 -14 19 C-16.09375 18.5703125 -16.09375 18.5703125 -18 18 C-17.20335937 17.28714844 -16.40671875 16.57429687 -15.5859375 15.83984375 C-10.01718042 10.81936537 -4.6970075 5.87125937 0 0 Z " fill="#FDDEDE" transform="translate(1091,677)"/>
<path d="M0 0 C1 2 1 2 1 6 C-0.65071396 7.02611949 -2.31970006 8.02308143 -4 9 C-5.03357147 10.64605826 -6.04060332 12.30963442 -7 14 C-7.66 14 -8.32 14 -9 14 C-9 13.34 -9 12.68 -9 12 C-9.66 11.67 -10.32 11.34 -11 11 C-7.37 7.37 -3.74 3.74 0 0 Z " fill="#F18464" transform="translate(851,658)"/>
<path d="M0 0 C1 4 1 4 0 6.5 C-2.63221149 9.79026437 -5.25717016 11.09327536 -9 13 C-9.33 12.01 -9.66 11.02 -10 10 C-6.7 6.7 -3.4 3.4 0 0 Z " fill="#F38562" transform="translate(862,647)"/>
<path d="M0 0 C0.33 0.99 0.66 1.98 1 3 C1.66 3.33 2.32 3.66 3 4 C2.22076172 4.32871094 2.22076172 4.32871094 1.42578125 4.6640625 C-2.31535647 6.3652083 -5.16166003 7.82197851 -7.6875 11.125 C-10.05919345 14.07359185 -11.4276219 14.97932054 -15 16 C-10.30233025 10.33870569 -5.25276628 5.14771096 0 0 Z " fill="#FDE7D5" transform="translate(653,567)"/>
<path d="M0 0 C0.33 0.66 0.66 1.32 1 2 C0.54109375 2.51949219 0.0821875 3.03898438 -0.390625 3.57421875 C-1.00421875 4.27160156 -1.6178125 4.96898437 -2.25 5.6875 C-3.21486328 6.77804687 -3.21486328 6.77804687 -4.19921875 7.890625 C-6.12278506 10.07665681 -6.12278506 10.07665681 -8.0625 12.9375 C-10.56298748 15.59930925 -12.42849475 15.75648828 -16 16 C-10.66666667 10.66666667 -5.33333333 5.33333333 0 0 Z " fill="#FEEFE7" transform="translate(755,817)"/>
<path d="M0 0 C0.99 0.33 1.98 0.66 3 1 C-1.29 5.29 -5.58 9.58 -10 14 C-10.33 13.01 -10.66 12.02 -11 11 C-10.34 10.01 -9.68 9.02 -9 8 C-8.34 8 -7.68 8 -7 8 C-7 7.34 -7 6.68 -7 6 C-2.52941176 2 -2.52941176 2 0 2 C0 1.34 0 0.68 0 0 Z " fill="#EA816B" transform="translate(791,778)"/>
<path d="M0 0 C0.33 0.99 0.66 1.98 1 3 C0.2575 3.5775 -0.485 4.155 -1.25 4.75 C-4.00118908 6.84375452 -4.00118908 6.84375452 -5.8125 9.25 C-9.18667185 11.94933748 -11.75207531 11.34257457 -16 11 C-16.66 10.67 -17.32 10.34 -18 10 C-18 9.34 -18 8.68 -18 8 C-16.783125 8.061875 -15.56625 8.12375 -14.3125 8.1875 C-8.76374043 8.16796211 -6.15794524 6.10648101 -2.1875 2.3125 C-1.465625 1.549375 -0.74375 0.78625 0 0 Z " fill="#FEF3E2" transform="translate(787,633)"/>
<path d="M0 0 C2.97932935 3.48930465 4.54739251 7.39716735 6.1875 11.625 C6.46013672 12.305625 6.73277344 12.98625 7.01367188 13.6875 C9 18.72550517 9 18.72550517 9 21 C8.34 21 7.68 21 7 21 C6.71125 20.030625 6.4225 19.06125 6.125 18.0625 C5.35785318 14.89335797 5.35785318 14.89335797 3 14 C3.33 12.35 3.66 10.7 4 9 C3.34 9 2.68 9 2 9 C0.50178941 5.62902617 0 3.79557881 0 0 Z " fill="#E7846C" transform="translate(1105,544)"/>
<path d="M0 0 C0.33 0 0.66 0 1 0 C1.19538118 9.86674975 1.38222795 19.34346884 -1 29 C-1.33 29 -1.66 29 -2 29 C-2.02686553 27.02090602 -2.04633375 25.04171029 -2.0625 23.0625 C-2.07410156 21.96035156 -2.08570313 20.85820313 -2.09765625 19.72265625 C-2 17 -2 17 -1 16 C-0.76321284 13.30764224 -0.57801975 10.63501844 -0.4375 7.9375 C-0.39431641 7.17888672 -0.35113281 6.42027344 -0.30664062 5.63867188 C-0.20026367 3.75934562 -0.09960066 1.87969756 0 0 Z " fill="#EB725F" transform="translate(1117,600)"/>
<path d="M0 0 C0.99 0.33 1.98 0.66 3 1 C-0.63 4.63 -4.26 8.26 -8 12 C-8.33 11.01 -8.66 10.02 -9 9 C-8.01 8.67 -7.02 8.34 -6 8 C-6.33 7.01 -6.66 6.02 -7 5 C-5.68 4.01 -4.36 3.02 -3 2 C-2.34 2.33 -1.68 2.66 -1 3 C-0.67 2.01 -0.34 1.02 0 0 Z " fill="#F29855" transform="translate(645,572)"/>
<path d="M0 0 C-0.54087318 3.78611227 -2.11722332 5.55400767 -5 8 C-5.66 8 -6.32 8 -7 8 C-7.33 8.99 -7.66 9.98 -8 11 C-9.32 10.67 -10.64 10.34 -12 10 C-10.38113585 8.32737283 -8.7547271 6.66204463 -7.125 5 C-6.22007812 4.071875 -5.31515625 3.14375 -4.3828125 2.1875 C-2 0 -2 0 0 0 Z " fill="#F1AE56" transform="translate(525,507)"/>
<path d="M0 0 C0.33 0 0.66 0 1 0 C1.25451584 4.10300923 1.47426446 8.20715476 1.6875 12.3125 C1.76033203 13.47974609 1.83316406 14.64699219 1.90820312 15.84960938 C1.96298828 16.96787109 2.01777344 18.08613281 2.07421875 19.23828125 C2.13182373 20.26993408 2.18942871 21.30158691 2.2487793 22.36450195 C2 25 2 25 -1 28 C-0.67 18.76 -0.34 9.52 0 0 Z " fill="#FEE3CE" transform="translate(1061,452)"/>
<path d="M0 0 C0 0.99 0 1.98 0 3 C-1.65848177 4.01351664 -3.32665961 5.01120795 -5 6 C-5.639375 6.886875 -6.27875 7.77375 -6.9375 8.6875 C-9 11 -9 11 -12.25 11.3125 C-13.1575 11.209375 -14.065 11.10625 -15 11 C-10.70024145 6.12694031 -5.62775683 3.1799558 0 0 Z " fill="#EDA65F" transform="translate(881,353)"/>
<path d="M0 0 C8.13734658 0.34774985 8.13734658 0.34774985 11.5625 2.9375 C13 5 13 5 13 7 C8.1725201 5.58707905 4.2837641 3.57025846 0 1 C0 0.67 0 0.34 0 0 Z " fill="#EE6A66" transform="translate(876,843)"/>
<path d="M0 0 C3.96 0.33 7.92 0.66 12 1 C12 1.66 12 2.32 12 3 C13.134375 3.268125 14.26875 3.53625 15.4375 3.8125 C16.613125 4.204375 17.78875 4.59625 19 5 C19.33 5.99 19.66 6.98 20 8 C17.69 7.34 15.38 6.68 13 6 C13 5.34 13 4.68 13 4 C11.7315625 3.814375 11.7315625 3.814375 10.4375 3.625 C6.84763202 2.97229673 3.49175125 2.04752537 0 1 C0 0.67 0 0.34 0 0 Z " fill="#FDF3D6" transform="translate(697,344)"/>
<path d="M0 0 C0.33 0 0.66 0 1 0 C1.36337162 3.27034459 1.28544288 4.60883753 -0.6875 7.3125 C-3.39116247 9.28544288 -4.72965541 9.36337162 -8 9 C-7.04270084 7.87411986 -6.08412105 6.7493285 -5.125 5.625 C-4.59132813 4.99851562 -4.05765625 4.37203125 -3.5078125 3.7265625 C-2.38567993 2.44163349 -1.20628025 1.20628025 0 0 Z " fill="#EF8963" transform="translate(903,606)"/>
<path d="M0 0 C0 0.66 0 1.32 0 2 C-1.7325 2.1546875 -1.7325 2.1546875 -3.5 2.3125 C-6.61180911 2.68635692 -9.22690826 3.3764084 -12.125 4.5625 C-15.52834433 5.94805125 -18.2930921 6.27801809 -22 6 C-15.51231702 1.67487801 -7.73287544 0 0 0 Z " fill="#EEA668" transform="translate(918,341)"/>
<path d="M0 0 C2.12213169 3.18319754 2 3.51791692 2 7 C1.34 7 0.68 7 0 7 C-0.12375 7.598125 -0.2475 8.19625 -0.375 8.8125 C-1 11 -1 11 -3 14 C-3.66 14 -4.32 14 -5 14 C-3.45730076 9.27934033 -1.92205381 4.58335908 0 0 Z " fill="#FDE8E9" transform="translate(1054,780)"/>
<path d="M0 0 C2.25137439 0.62003092 4.50105526 1.24621341 6.75 1.875 C8.00296875 2.22304688 9.2559375 2.57109375 10.546875 2.9296875 C13.24953641 3.76739025 15.5469357 4.62479728 18 6 C13.45514809 6.07703139 9.44552929 6.01612098 5 5 C4.01 5 3.02 5 2 5 C2 4.01 2 3.02 2 2 C1.34 2 0.68 2 0 2 C0 1.34 0 0.68 0 0 Z " fill="#ED8D6B" transform="translate(744,699)"/>
<path d="M0 0 C2.31 0.66 4.62 1.32 7 2 C7 2.66 7 3.32 7 4 C7.66 4 8.32 4 9 4 C9.33 4.99 9.66 5.98 10 7 C11.62652316 8.70586575 13.29006566 10.3777546 15 12 C11.26427172 10.37228982 8.38341608 8.01966695 5.25 5.4375 C4.26515625 4.63183594 3.2803125 3.82617188 2.265625 2.99609375 C1.51796875 2.33738281 0.7703125 1.67867187 0 1 C0 0.67 0 0.34 0 0 Z " fill="#EE9D64" transform="translate(519,688)"/>
<path d="M0 0 C0.99 0.33 1.98 0.66 3 1 C-0.63 4.63 -4.26 8.26 -8 12 C-8.66 10.68 -9.32 9.36 -10 8 C-7.32521756 6.3372974 -5.0004856 5.00016187 -2 4 C-2 3.34 -2 2.68 -2 2 C-1.34 2 -0.68 2 0 2 C0 1.34 0 0.68 0 0 Z " fill="#FCF3E1" transform="translate(862,644)"/>
<path d="M0 0 C0.33 0.66 0.66 1.32 1 2 C-0.25695253 5.17545902 -1.19075756 7.418357 -4 9.4375 C-6 10 -6 10 -9 9 C-6.03 6.03 -3.06 3.06 0 0 Z " fill="#EE8C64" transform="translate(969,540)"/>
<path d="M0 0 C-1.32 0.33 -2.64 0.66 -4 1 C-4.12375 1.639375 -4.2475 2.27875 -4.375 2.9375 C-4.58125 3.618125 -4.7875 4.29875 -5 5 C-8.06890187 6.53445094 -10.70094266 5.54984289 -14 5 C-11.75043698 2.75043698 -9.93676737 1.99489035 -7 0.8125 C-6.113125 0.44769531 -5.22625 0.08289063 -4.3125 -0.29296875 C-2 -1 -2 -1 0 0 Z " fill="#FBE6DF" transform="translate(994,850)"/>
<path d="M0 0 C2 1.5625 2 1.5625 4 4 C4.1875 7.3125 4.1875 7.3125 4 11 C4.29692012 13.33824592 4.62020847 15.67377689 5 18 C1.06760685 14.06760685 0.09219786 7.78249194 -0.1875 2.375 C-0.125625 1.59125 -0.06375 0.8075 0 0 Z " fill="#EDA664" transform="translate(484,624)"/>
<path d="M0 0 C0.33 0.99 0.66 1.98 1 3 C0.09507812 3.79664063 0.09507812 3.79664063 -0.828125 4.609375 C-1.62734375 5.31578125 -2.4265625 6.0221875 -3.25 6.75 C-4.03890625 7.44609375 -4.8278125 8.1421875 -5.640625 8.859375 C-7.83011856 10.84586916 -9.92901285 12.89101308 -12 15 C-12.66 14.67 -13.32 14.34 -14 14 C-9.38 9.38 -4.76 4.76 0 0 Z " fill="#FEF5E2" transform="translate(813,607)"/>
<path d="M0 0 C5.28 0.33 10.56 0.66 16 1 C16 1.33 16 1.66 16 2 C15.01257813 2.13277344 14.02515625 2.26554688 13.0078125 2.40234375 C11.72648438 2.57894531 10.44515625 2.75554688 9.125 2.9375 C7.21074219 3.19853516 7.21074219 3.19853516 5.2578125 3.46484375 C2.12440546 3.81433227 2.12440546 3.81433227 0 5 C0 3.35 0 1.7 0 0 Z " fill="#F07F5B" transform="translate(760,705)"/>
<path d="M0 0 C1.32 0.33 2.64 0.66 4 1 C2.35 2.65 0.7 4.3 -1 6 C-0.34 7.65 0.32 9.3 1 11 C0.01 11.495 0.01 11.495 -1 12 C-1.66 11.67 -2.32 11.34 -3 11 C-3.125 4.25 -3.125 4.25 -2 2 C-1.34 2 -0.68 2 0 2 C0 1.34 0 0.68 0 0 Z " fill="#F39A59" transform="translate(632,584)"/>
<path d="M0 0 C3.465 1.98 3.465 1.98 7 4 C7 4.66 7 5.32 7 6 C7.99 6.33 8.98 6.66 10 7 C6.25 9 6.25 9 4 9 C3.67 7.02 3.34 5.04 3 3 C2.01 2.67 1.02 2.34 0 2 C0 1.34 0 0.68 0 0 Z " fill="#F08462" transform="translate(1069,502)"/>
<path d="M0 0 C0 4.59154392 -2.90717721 6.81301632 -6 10 C-7.6280092 11.38026867 -9.28043882 12.73561678 -11 14 C-11.66 13.67 -12.32 13.34 -13 13 C-8.71 8.71 -4.42 4.42 0 0 Z " fill="#EAAA71" transform="translate(819,408)"/>
<path d="M0 0 C0.66 0.33 1.32 0.66 2 1 C0.87895467 2.31587941 -0.24696965 3.62760353 -1.375 4.9375 C-2.00148438 5.66839844 -2.62796875 6.39929688 -3.2734375 7.15234375 C-5 9 -5 9 -7 10 C-7.99 11.485 -7.99 11.485 -9 13 C-9.66 12.34 -10.32 11.68 -11 11 C-9.71451591 9.66070495 -8.42141845 8.32871357 -7.125 7 C-6.04605469 5.88625 -6.04605469 5.88625 -4.9453125 4.75 C-3 3 -3 3 -1 3 C-0.67 2.01 -0.34 1.02 0 0 Z " fill="#EFAB6C" transform="translate(860,367)"/>
<path d="M0 0 C3 1 3 1 4.5 3.9375 C4.995 4.948125 5.49 5.95875 6 7 C6.99 7.66 7.98 8.32 9 9 C8.67 10.65 8.34 12.3 8 14 C4.17398376 9.76405345 2.13637096 5.21592698 0 0 Z " fill="#EE9369" transform="translate(550,791)"/>
<path d="M0 0 C1.32 0.66 2.64 1.32 4 2 C4 2.66 4 3.32 4 4 C-1.17578125 7.22265625 -1.17578125 7.22265625 -3 8 C-3.99 7.67 -4.98 7.34 -6 7 C-5.34 7 -4.68 7 -4 7 C-4 6.01 -4 5.02 -4 4 C-2.68 4 -1.36 4 0 4 C0 2.68 0 1.36 0 0 Z " fill="#F16B63" transform="translate(1064,696)"/>
<path d="M0 0 C1.134375 0.020625 2.26875 0.04125 3.4375 0.0625 C0.56671701 1.97635532 -1.89661656 3.02682952 -5.125 4.1875 C-6.09566406 4.54070313 -7.06632813 4.89390625 -8.06640625 5.2578125 C-10.5625 6.0625 -10.5625 6.0625 -12.5625 6.0625 C-12.5625 5.4025 -12.5625 4.7425 -12.5625 4.0625 C-11.99660156 3.85753906 -11.43070313 3.65257812 -10.84765625 3.44140625 C-10.11417969 3.17199219 -9.38070312 2.90257812 -8.625 2.625 C-7.89410156 2.35816406 -7.16320312 2.09132813 -6.41015625 1.81640625 C-2.04654255 0.03590426 -2.04654255 0.03590426 0 0 Z " fill="#FDECE4" transform="translate(804.5625,696.9375)"/>
<path d="M0 0 C0 4.31618166 -2.13270348 5.92789659 -5 9 C-5.66 9 -6.32 9 -7 9 C-7.66 10.32 -8.32 11.64 -9 13 C-9.99 13 -10.98 13 -12 13 C-8.19524578 8.43969176 -4.25030379 4.14910608 0 0 Z " fill="#FEF7E1" transform="translate(894,526)"/>
<path d="M0 0 C0.33 0.99 0.66 1.98 1 3 C-1.97 6.3 -4.94 9.6 -8 13 C-8 9.4384838 -7.26790571 8.68021425 -5.125 5.9375 C-4.59132813 5.24527344 -4.05765625 4.55304688 -3.5078125 3.83984375 C-2 2 -2 2 0 0 Z " fill="#F2A25B" transform="translate(845,382)"/>
<path d="M0 0 C0.99 0.495 0.99 0.495 2 1 C1.01 1.495 1.01 1.495 0 2 C0 1.34 0 0.68 0 0 Z M0 3 C-2.64738916 4.4606285 -3.89448334 5 -7 5 C-7 4.34 -7 3.68 -7 3 C-3.86650268 1.95550089 -3.01031744 2.06576355 0 3 Z M-9 5 C-8.34 5.33 -7.68 5.66 -7 6 C-9.97 8.475 -9.97 8.475 -13 11 C-13.66 10.67 -14.32 10.34 -15 10 C-13.02 8.35 -11.04 6.7 -9 5 Z " fill="#F7B243" transform="translate(602,355)"/>
<path d="M0 0 C0.33 0.99 0.66 1.98 1 3 C0.07421875 4.68359375 0.07421875 4.68359375 -1.3125 6.4375 C-3.17457354 8.87888531 -4.75613113 11.1730253 -6 14 C-6.99 13.67 -7.98 13.34 -9 13 C-8.60167969 12.48050781 -8.20335937 11.96101562 -7.79296875 11.42578125 C-4.97822677 7.72073158 -2.28614026 4.06424935 0 0 Z " fill="#FEE4E4" transform="translate(1045,800)"/>
<path d="M0 0 C0.66 0.33 1.32 0.66 2 1 C0.02 4.63 -1.96 8.26 -4 12 C-4.33 12 -4.66 12 -5 12 C-5 9.36 -5 6.72 -5 4 C-4.360625 3.71125 -3.72125 3.4225 -3.0625 3.125 C-0.84793921 2.17176549 -0.84793921 2.17176549 0 0 Z " fill="#F16871" transform="translate(1049,789)"/>
<path d="M0 0 C0.66 0.33 1.32 0.66 2 1 C1.34 2.98 0.68 4.96 0 7 C-3 7 -3 7 -4.6875 5.5 C-5.120625 5.005 -5.55375 4.51 -6 4 C-5.195625 3.525625 -4.39125 3.05125 -3.5625 2.5625 C-1.15246512 1.23099846 -1.15246512 1.23099846 0 0 Z " fill="#292A2F" transform="translate(1191,1058)"/>
<path d="M0 0 C0.33 0.99 0.66 1.98 1 3 C-0.9628843 6.1708131 -2.12536 7.74158364 -5.75 8.8125 C-6.4925 8.874375 -7.235 8.93625 -8 9 C-7.04270084 7.87411986 -6.08412105 6.7493285 -5.125 5.625 C-4.59132813 4.99851562 -4.05765625 4.37203125 -3.5078125 3.7265625 C-2.38567993 2.44163349 -1.20628025 1.20628025 0 0 Z " fill="#F3896C" transform="translate(871,638)"/>
<path d="M0 0 C2.14070203 4.28140406 2.99199717 7.30005223 2 12 C-0.5 14.5 -0.5 14.5 -3 16 C-3.33 15.01 -3.66 14.02 -4 13 C-2.68 12.34 -1.36 11.68 0 11 C0 7.37 0 3.74 0 0 Z " fill="#FEF3D1" transform="translate(540,482)"/>
<path d="M0 0 C0.66 0.33 1.32 0.66 2 1 C2 1.99 2 2.98 2 4 C3.65 4.33 5.3 4.66 7 5 C7 6.65 7 8.3 7 10 C5.84775972 9.07038578 4.70340824 8.1309875 3.5625 7.1875 C2.60537109 6.40439453 2.60537109 6.40439453 1.62890625 5.60546875 C0 4 0 4 -1 1 C-0.67 0.67 -0.34 0.34 0 0 Z " fill="#EE8D69" transform="translate(569,817)"/>
<path d="M0 0 C3.9252025 3.70090521 6.94580156 7.54959656 10 12 C9.01 12 8.02 12 7 12 C7 11.34 7 10.68 7 10 C6.34 10 5.68 10 5 10 C3.7109375 8.3203125 3.7109375 8.3203125 2.375 6.125 C1.92898438 5.40570312 1.48296875 4.68640625 1.0234375 3.9453125 C0 2 0 2 0 0 Z " fill="#EB8A76" transform="translate(1088,519)"/>
<path d="M0 0 C0.66 0 1.32 0 2 0 C2.66 3.63 3.32 7.26 4 11 C2.35 11.66 0.7 12.32 -1 13 C-0.67 12.34 -0.34 11.68 0 11 C0.07033769 9.12620395 0.0843022 7.24998898 0.0625 5.375 C0.05347656 4.37210937 0.04445313 3.36921875 0.03515625 2.3359375 C0.02355469 1.56507813 0.01195312 0.79421875 0 0 Z " fill="#F1B66C" transform="translate(541,483)"/>
<path d="M0 0 C5 2 5 2 10 4 C10 4.66 10 5.32 10 6 C10.66 6 11.32 6 12 6 C12.33 7.32 12.66 8.64 13 10 C11.20360704 8.90353942 9.41302846 7.79754852 7.625 6.6875 C6.62726562 6.07261719 5.62953125 5.45773437 4.6015625 4.82421875 C2 3 2 3 0 0 Z " fill="#FDF2D6" transform="translate(726,357)"/>
<path d="M0 0 C0.66 0.99 1.32 1.98 2 3 C1.505 3.45375 1.01 3.9075 0.5 4.375 C-1.22609337 5.87635519 -1.22609337 5.87635519 -1 8 C-2.98 8 -4.96 8 -7 8 C-6.02133662 6.85373678 -5.04205413 5.70800212 -4.0625 4.5625 C-3.51722656 3.92441406 -2.97195313 3.28632812 -2.41015625 2.62890625 C-1.63204305 1.73008851 -0.84063472 0.84063472 0 0 Z " fill="#F08765" transform="translate(879,630)"/>
<path d="M0 0 C0.66 0.66 1.32 1.32 2 2 C1.81864449 4.76713403 1.5356614 7.3919776 1.125 10.125 C1.02058594 10.87910156 0.91617188 11.63320313 0.80859375 12.41015625 C0.54895402 14.27484156 0.27574971 16.13762887 0 18 C-0.33 18 -0.66 18 -1 18 C-1.02707139 15.75006641 -1.04642829 13.50003905 -1.0625 11.25 C-1.07410156 9.99703125 -1.08570313 8.7440625 -1.09765625 7.453125 C-1.02021027 4.71463499 -0.82780815 2.58119707 0 0 Z " fill="#F6AE4A" transform="translate(542,434)"/>
<path d="M0 0 C2 3 2 3 2 5 C3.32 5.33 4.64 5.66 6 6 C5.67 7.32 5.34 8.64 5 10 C2.69 7.69 0.38 5.38 -2 3 C-1.34 2.67 -0.68 2.34 0 2 C0 1.34 0 0.68 0 0 Z " fill="#EE796C" transform="translate(826,794)"/>
<path d="M0 0 C1.8272911 2.74093665 2.93698178 5.13825324 4.125 8.1875 C4.47820313 9.08855469 4.83140625 9.98960937 5.1953125 10.91796875 C5.46085938 11.60503906 5.72640625 12.29210937 6 13 C5.01 13.495 5.01 13.495 4 14 C3.731875 13.05125 3.46375 12.1025 3.1875 11.125 C2.25013412 7.74732727 2.25013412 7.74732727 -1 6 C-0.67 4.02 -0.34 2.04 0 0 Z " fill="#FCE8DB" transform="translate(546,782)"/>
<path d="M0 0 C0.33 0 0.66 0 1 0 C1 3.96 1 7.92 1 12 C-1.24497221 9.75502779 -1.37003419 9.03972651 -1.75 6 C-1.84796875 5.29875 -1.9459375 4.5975 -2.046875 3.875 C-2 2 -2 2 0 0 Z " fill="#F7A049" transform="translate(485,614)"/>
<path d="M0 0 C0 3.39593478 -0.52165948 4.06619881 -2.5 6.6875 C-2.9640625 7.31011719 -3.428125 7.93273437 -3.90625 8.57421875 C-4.2671875 9.04472656 -4.628125 9.51523437 -5 10 C-5.99 9.34 -6.98 8.68 -8 8 C-5.36 5.36 -2.72 2.72 0 0 Z " fill="#FDF9E7" transform="translate(822,598)"/>
<path d="M0 0 C0.33 0.66 0.66 1.32 1 2 C0.67 2.66 0.34 3.32 0 4 C-0.66 4 -1.32 4 -2 4 C-2.33 4.99 -2.66 5.98 -3 7 C-4.62332967 8.38576923 -6.28724465 9.72641268 -8 11 C-8.66 10.67 -9.32 10.34 -10 10 C-6.7 6.7 -3.4 3.4 0 0 Z " fill="#FEF6E0" transform="translate(865,555)"/>
<path d="M0 0 C0.6875 1.8125 0.6875 1.8125 1 4 C-0.64504011 6.46756016 -1.80299352 6.94960299 -4.6875 7.6875 C-5.8321875 7.8421875 -5.8321875 7.8421875 -7 8 C-6.02133662 6.85373678 -5.04205413 5.70800212 -4.0625 4.5625 C-3.51722656 3.92441406 -2.97195313 3.28632812 -2.41015625 2.62890625 C-1.63204305 1.73008851 -0.84063472 0.84063472 0 0 Z " fill="#F0896A" transform="translate(959,550)"/>
<path d="M0 0 C4.10958767 1.45044271 7.43258745 3.51110752 11 6 C9 7 9 7 6.0625 6.25 C3.24838258 5.10138065 1.79637699 4.39516931 0 2 C0 1.34 0 0.68 0 0 Z " fill="#EB886B" transform="translate(1058,495)"/>
<path d="M0 0 C7.48291572 6.15034169 7.48291572 6.15034169 10 10 C8.0625 9.6875 8.0625 9.6875 6 9 C5.67 8.01 5.34 7.02 5 6 C4.01 5.67 3.02 5.34 2 5 C0.8125 2.4375 0.8125 2.4375 0 0 Z " fill="#EFAC6C" transform="translate(770,398)"/>
<path d="M0 0 C1.12894876 0.93274109 2.25300876 1.87140122 3.375 2.8125 C4.00148438 3.33457031 4.62796875 3.85664063 5.2734375 4.39453125 C7 6 7 6 9 9 C5.30712847 8.09729807 3.44631711 7.59508949 1.125 4.5 C0 2 0 2 0 0 Z " fill="#ECAC6A" transform="translate(761,389)"/>
<path d="M0 0 C0.33 0.99 0.66 1.98 1 3 C-0.40445835 5.2636564 -2.1967913 7.0208685 -4 9 C-4.99 8.34 -5.98 7.68 -7 7 C-4.69 4.69 -2.38 2.38 0 0 Z " fill="#F38B6B" transform="translate(887,622)"/>
<path d="M0 0 C1.14926266 0.95421808 2.29430541 1.91352045 3.4375 2.875 C4.07558594 3.40867187 4.71367188 3.94234375 5.37109375 4.4921875 C7 6 7 6 8 8 C6.02 7.34 4.04 6.68 2 6 C2 5.34 2 4.68 2 4 C1.34 4 0.68 4 0 4 C0 2.68 0 1.36 0 0 Z " fill="#EF9E61" transform="translate(636,598)"/>
<path d="M0 0 C0.33 0.99 0.66 1.98 1 3 C-0.63167477 6.16736868 -1.83357085 6.93473367 -5.1875 8.25 C-6.115625 8.4975 -7.04375 8.745 -8 9 C-7.04270084 7.87411986 -6.08412105 6.7493285 -5.125 5.625 C-4.59132813 4.99851562 -4.05765625 4.37203125 -3.5078125 3.7265625 C-2.38567993 2.44163349 -1.20628025 1.20628025 0 0 Z " fill="#EE8F6F" transform="translate(951,558)"/>
<path d="M0 0 C0.99 0.33 1.98 0.66 3 1 C0.69 3.31 -1.62 5.62 -4 8 C-4.33 7.01 -4.66 6.02 -5 5 C-3.35 3.35 -1.7 1.7 0 0 Z " fill="#FCF5E3" transform="translate(950,556)"/>
<path d="M0 0 C2.31 0.33 4.62 0.66 7 1 C7 2.98 7 4.96 7 7 C5.83040013 6.02433888 4.66438823 5.044375 3.5 4.0625 C2.8503125 3.51722656 2.200625 2.97195313 1.53125 2.41015625 C1.0259375 1.94480469 0.520625 1.47945312 0 1 C0 0.67 0 0.34 0 0 Z " fill="#F07D6C" transform="translate(817,789)"/>
<path d="M0 0 C0.66 0.33 1.32 0.66 2 1 C0.875 3.4375 0.875 3.4375 -1 6 C-4.1875 6.8125 -4.1875 6.8125 -7 7 C-4.66666667 4.66666667 -2.33333333 2.33333333 0 0 Z " fill="#FEE7EB" transform="translate(1080,689)"/>
<path d="M0 0 C0.99 0.33 1.98 0.66 3 1 C0.36 3.64 -2.28 6.28 -5 9 C-5.33 8.01 -5.66 7.02 -6 6 C-4.68 5.34 -3.36 4.68 -2 4 C-2 3.34 -2 2.68 -2 2 C-1.34 2 -0.68 2 0 2 C0 1.34 0 0.68 0 0 Z " fill="#FBF1E2" transform="translate(910,596)"/>
<path d="M0 0 C0.99 0.33 1.98 0.66 3 1 C0.36 3.64 -2.28 6.28 -5 9 C-5.33 8.01 -5.66 7.02 -6 6 C-4.68 5.34 -3.36 4.68 -2 4 C-2 3.34 -2 2.68 -2 2 C-1.34 2 -0.68 2 0 2 C0 1.34 0 0.68 0 0 Z " fill="#FBF1E2" transform="translate(926,580)"/>
<path d="M0 0 C0.33 0 0.66 0 1 0 C1 4.62 1 9.24 1 14 C0.01 14 -0.98 14 -2 14 C-1.855625 13.175 -1.71125 12.35 -1.5625 11.5 C-0.94746848 7.67313722 -0.46439363 3.84783293 0 0 Z " fill="#FEE3CE" transform="translate(1059,480)"/>
<path d="M0 0 C1.14926266 0.95421808 2.29430541 1.91352045 3.4375 2.875 C4.07558594 3.40867187 4.71367188 3.94234375 5.37109375 4.4921875 C7 6 7 6 8 8 C2.25 6.375 2.25 6.375 0 3 C0 2.01 0 1.02 0 0 Z " fill="#EFAF61" transform="translate(746,374)"/>
<path d="M0 0 C1.65 0 3.3 0 5 0 C1.80009492 2.74277578 -1.00499382 4.6302836 -5 6 C-4.34 4.68 -3.68 3.36 -3 2 C-2.01 2 -1.02 2 0 2 C0 1.34 0 0.68 0 0 Z " fill="#FDF6DA" transform="translate(597,353)"/>
<path d="M0 0 C1.60379341 -0.05416188 3.20811406 -0.09286638 4.8125 -0.125 C5.70582031 -0.14820313 6.59914063 -0.17140625 7.51953125 -0.1953125 C10 0 10 0 13 2 C9.72814447 3.07310858 7.57052408 2.89263102 4.25 2.0625 C3.05117188 1.77052734 3.05117188 1.77052734 1.828125 1.47265625 C1.22484375 1.31667969 0.6215625 1.16070313 0 1 C0 0.67 0 0.34 0 0 Z " fill="#EA787E" transform="translate(908,857)"/>
<path d="M0 0 C0.99 0.33 1.98 0.66 3 1 C0.69 3.31 -1.62 5.62 -4 8 C-4.33 7.01 -4.66 6.02 -5 5 C-3.35 3.35 -1.7 1.7 0 0 Z " fill="#EE816E" transform="translate(746,823)"/>
<path d="M0 0 C0.66 0.33 1.32 0.66 2 1 C0.02 5.455 0.02 5.455 -2 10 C-2.95514044 6.17943822 -3.08352672 4.64458987 -2 1 C-1.34 0.67 -0.68 0.34 0 0 Z " fill="#FEF5E2" transform="translate(491,547)"/>
<path d="M0 0 C0.99 0 1.98 0 3 0 C3.33 1.32 3.66 2.64 4 4 C4.99 4 5.98 4 7 4 C6.34 5.32 5.68 6.64 5 8 C4.16382818 6.8562364 3.33113541 5.70992861 2.5 4.5625 C2.0359375 3.92441406 1.571875 3.28632812 1.09375 2.62890625 C0 1 0 1 0 0 Z " fill="#EE9D5F" transform="translate(505,672)"/>
<path d="M0 0 C0.33 0.66 0.66 1.32 1 2 C1.66 2 2.32 2 3 2 C2.67 3.32 2.34 4.64 2 6 C0.68 6 -0.64 6 -2 6 C-1.125 1.125 -1.125 1.125 0 0 Z " fill="#F8A93F" transform="translate(541,496)"/>
<path d="M0 0 C2.64 1.98 5.28 3.96 8 6 C6.68 6.33 5.36 6.66 4 7 C4 6.34 4 5.68 4 5 C2.68 4.34 1.36 3.68 0 3 C0 2.01 0 1.02 0 0 Z " fill="#FEECE0" transform="translate(580,831)"/>
<path d="M0 0 C1.12894876 0.93274109 2.25300876 1.87140122 3.375 2.8125 C4.00148438 3.33457031 4.62796875 3.85664062 5.2734375 4.39453125 C7 6 7 6 9 9 C5.55862568 7.4705003 2.7777867 5.54630448 0 3 C0 2.01 0 1.02 0 0 Z " fill="#FEEEE7" transform="translate(848,821)"/>
<path d="M0 0 C2.31 1.65 4.62 3.3 7 5 C6.34 5.66 5.68 6.32 5 7 C2 6 2 6 0 3 C0 2.01 0 1.02 0 0 Z " fill="#FDEEDD" transform="translate(519,689)"/>
<path d="M0 0 C2.97 0.495 2.97 0.495 6 1 C6.33 2.98 6.66 4.96 7 7 C5.83040013 6.02433888 4.66438823 5.044375 3.5 4.0625 C2.8503125 3.51722656 2.200625 2.97195313 1.53125 2.41015625 C1.0259375 1.94480469 0.520625 1.47945312 0 1 C0 0.67 0 0.34 0 0 Z " fill="#FEF4E5" transform="translate(680,641)"/>
<path d="M0 0 C5 2 5 2 6.375 4.4375 C7 7 7 7 6 10 C4.02 6.7 2.04 3.4 0 0 Z " fill="#FEEBDF" transform="translate(1095,527)"/>
<path d="M0 0 C0.33 0.99 0.66 1.98 1 3 C-3.75 7.875 -3.75 7.875 -6 9 C-4.47291037 5.56404834 -2.40072955 2.88087546 0 0 Z " fill="#EFAF5C" transform="translate(512,518)"/>
<path d="M0 0 C0.66 0.33 1.32 0.66 2 1 C0.55746343 4.36591866 -1.33264727 6.51047079 -4 9 C-3.67 7.35 -3.34 5.7 -3 4 C-2.34 4 -1.68 4 -1 4 C-0.67 2.68 -0.34 1.36 0 0 Z " fill="#FEF4D6" transform="translate(508,519)"/>
<path d="M0 0 C1.9375 0.375 1.9375 0.375 4 1 C5.35439668 3.70879335 5.06501451 6.00933268 5 9 C2.67527795 6.14693203 1.2491742 3.45925163 0 0 Z " fill="#FEF4DE" transform="translate(1048,405)"/>
<path d="M0 0 C0.66 0 1.32 0 2 0 C1.67 2.31 1.34 4.62 1 7 C0.01 7.33 -0.98 7.66 -2 8 C-2.20086443 4.28400809 -2.1519437 3.22791555 0 0 Z " fill="#F3B44E" transform="translate(558,394)"/>
<path d="M0 0 C0.33 0.66 0.66 1.32 1 2 C-0.65 3.32 -2.3 4.64 -4 6 C-5.32 5.34 -6.64 4.68 -8 4 C-5.36 2.68 -2.72 1.36 0 0 Z " fill="#FDEADD" transform="translate(719,846)"/>
<path d="M0 0 C0.99 0.33 1.98 0.66 3 1 C1.87926138 1.83905565 0.75325453 2.67107831 -0.375 3.5 C-1.00148438 3.9640625 -1.62796875 4.428125 -2.2734375 4.90625 C-4 6 -4 6 -6 6 C-5.67 5.01 -5.34 4.02 -5 3 C-3.35 2.67 -1.7 2.34 0 2 C0 1.34 0 0.68 0 0 Z " fill="#EB6A6E" transform="translate(1010,836)"/>
<path d="M0 0 C1 3 1 3 1 5 C-1.31 5.66 -3.62 6.32 -6 7 C-4.02 4.69 -2.04 2.38 0 0 Z " fill="#FEF3E7" transform="translate(767,805)"/>
<path d="M0 0 C0.99 0.33 1.98 0.66 3 1 C0.69 3.31 -1.62 5.62 -4 8 C-4.33 7.01 -4.66 6.02 -5 5 C-3.35 3.35 -1.7 1.7 0 0 Z " fill="#E67771" transform="translate(1081,685)"/>
<path d="M0 0 C2.31 1.98 4.62 3.96 7 6 C6.01 6.33 5.02 6.66 4 7 C1 5 1 5 0.3125 2.375 C0.209375 1.59125 0.10625 0.8075 0 0 Z " fill="#EB9465" transform="translate(704,666)"/>
<path d="M0 0 C0.66 0.33 1.32 0.66 2 1 C-1.465 3.97 -1.465 3.97 -5 7 C-5.33 5.68 -5.66 4.36 -6 3 C-4.03533587 1.93224776 -2.03144641 0.93446535 0 0 Z " fill="#FEF3E1" transform="translate(842,665)"/>
<path d="M0 0 C0.99 0.33 1.98 0.66 3 1 C-0.465 3.97 -0.465 3.97 -4 7 C-4 6.01 -4 5.02 -4 4 C-3.34 4 -2.68 4 -2 4 C-2 3.01 -2 2.02 -2 1 C-1.34 0.67 -0.68 0.34 0 0 Z " fill="#FCF3DF" transform="translate(917,589)"/>
<path d="M0 0 C0 3.10551666 -0.5393715 4.35261084 -2 7 C-3.32 6.67 -4.64 6.34 -6 6 C-4.02 4.02 -2.04 2.04 0 0 Z " fill="#F28C6F" transform="translate(942,567)"/>
<path d="M0 0 C0.66 0.33 1.32 0.66 2 1 C-0.475 4.465 -0.475 4.465 -3 8 C-4 5 -4 5 -3 2 C-2.01 1.34 -1.02 0.68 0 0 Z " fill="#FDF8DB" transform="translate(563,384)"/>
<path d="M0 0 C2.31 1.98 4.62 3.96 7 6 C6.01 6.33 5.02 6.66 4 7 C1.23609263 4.59660228 0.95934081 3.83736322 0 0 Z " fill="#F4AC68" transform="translate(754,382)"/>
<path d="M0 0 C3.93673644 1.31224548 6.22719294 2.91910327 9 6 C7.35 5.67 5.7 5.34 4 5 C4 4.34 4 3.68 4 3 C2.68 2.34 1.36 1.68 0 1 C0 0.67 0 0.34 0 0 Z " fill="#EE9A60" transform="translate(1004,358)"/>
<path d="M0 0 C2.97 0 5.94 0 9 0 C9 0.99 9 1.98 9 3 C4.545 2.01 4.545 2.01 0 1 C0 0.67 0 0.34 0 0 Z " fill="#FDEDCF" transform="translate(687,341)"/>
<path d="M0 0 C0.33 0.66 0.66 1.32 1 2 C0.01 3.32 -0.98 4.64 -2 6 C-2.99 5.67 -3.98 5.34 -5 5 C-3.35 3.35 -1.7 1.7 0 0 Z " fill="#FCE6E5" transform="translate(1022,829)"/>
<path d="M0 0 C0.33 0.66 0.66 1.32 1 2 C-0.32 3.65 -1.64 5.3 -3 7 C-3.99 6.67 -4.98 6.34 -6 6 C-4.02 4.02 -2.04 2.04 0 0 Z " fill="#FEF1E8" transform="translate(1029,822)"/>
<path d="M0 0 C1.14926266 0.95421808 2.29430541 1.91352045 3.4375 2.875 C4.07558594 3.40867187 4.71367188 3.94234375 5.37109375 4.4921875 C7 6 7 6 8 8 C5.04987143 6.63029745 2.4347778 5.17390875 0 3 C0 2.01 0 1.02 0 0 Z " fill="#FEEEE4" transform="translate(832,805)"/>
<path d="M0 0 C0.66 0 1.32 0 2 0 C1.5020163 3.73487777 1.12508244 5.81237635 -1 9 C-1.125 2.25 -1.125 2.25 0 0 Z " fill="#EA686B" transform="translate(1053,776)"/>
<path d="M0 0 C0.99 0 1.98 0 3 0 C5.125 4.625 5.125 4.625 4 8 C0 2.25 0 2.25 0 0 Z " fill="#EE9E5C" transform="translate(500,664)"/>
<path d="M0 0 C2.50298434 2.93828597 3.46930939 5.17902761 4 9 C2.68 8.34 1.36 7.68 0 7 C0 4.69 0 2.38 0 0 Z " fill="#FEF0D9" transform="translate(489,645)"/>
<path d="M0 0 C0.99 0.33 1.98 0.66 3 1 C-0.465 3.97 -0.465 3.97 -4 7 C-3.39816251 4.97954558 -2.72693904 2.97888961 -2 1 C-1.34 0.67 -0.68 0.34 0 0 Z " fill="#FDF2DD" transform="translate(901,605)"/>
</svg>
